<svg width="36" height="36" viewBox="0 0 36 36" fill="none" xmlns="http://www.w3.org/2000/svg">
<path opacity="0.22" d="M15.5348 2.9992C15.534 2.19145 15.6195 1.8382 15.8933 1.5112C16.0185 1.36195 16.158 1.2802 16.308 1.2682C16.773 1.25845 17.2268 1.7662 17.409 2.8237C17.43 2.9437 17.4428 3.0157 17.448 3.05995L15.5355 3.13795L15.5348 2.9992Z" fill="white"/>
<path d="M15.8026 34.2509V31.9049C15.8026 30.5294 15.2191 29.2282 14.2178 28.2854C13.7573 27.8519 13.3321 27.3577 12.9571 26.8094C12.8821 26.6999 12.8243 26.5844 12.7546 26.4727L11.3198 24.4259L11.3093 24.4409L9.51606 21.8632L9.3053 21.6652C8.5478 20.9549 7.62306 20.4427 6.61281 20.1712L4.41005 19.5824C3.97806 19.4692 3.68481 19.0807 3.69381 18.6442C3.90156 15.8467 8.87106 15.2872 13.8278 17.5477V17.5387C14.1053 17.6594 14.2868 17.5012 14.3348 16.9357C14.3348 16.9319 14.3356 16.9274 14.3356 16.9237C14.3536 16.3184 14.7391 3.5422 14.7421 3.4207C14.7211 2.7157 14.8733 2.08645 15.1448 1.5877C15.4531 1.02145 15.8956 0.704948 16.3883 0.696698C16.8818 0.688448 17.3348 0.989948 17.6626 1.5457C17.9506 2.0347 18.1156 2.6797 18.1268 3.35095L18.6646 13.8929C18.6713 13.8929 18.6773 13.8929 18.6908 13.8929C18.8933 12.8587 19.8001 12.0772 20.8936 12.0772C22.1363 12.0772 23.1436 13.0844 23.1436 14.3272C23.1436 13.0844 24.1508 12.0772 25.3936 12.0772C26.4848 12.0772 27.3893 12.8549 27.5948 13.8854C27.7793 12.8287 28.6958 12.0232 29.8058 12.0232C31.0486 12.0232 32.2711 13.1017 32.2711 14.3444C32.2711 14.3467 32.5126 24.8609 31.7108 26.8732C31.4303 27.5774 30.9398 28.2007 30.3331 28.7167C29.2163 29.667 28.5511 31.0432 28.5511 32.5094V34.2502C28.5511 34.7729 25.6966 35.1959 22.1761 35.1959C18.6571 35.1974 15.8026 34.7737 15.8026 34.2509Z" fill="url(#paint0_radial_174_4627)"/>
<g opacity="0.62">
<path opacity="0.091" d="M23.2298 14.2274L24.1868 16.4684C24.1763 17.0512 23.6948 17.5154 23.112 17.5042C22.5293 17.4937 22.065 17.0122 22.0763 16.4294C22.0778 16.3462 22.0905 16.2607 22.11 16.1834L23.0137 14.1974C23.0288 14.1389 23.0888 14.1037 23.1473 14.1187C23.1983 14.1322 23.2313 14.1779 23.2298 14.2274Z" fill="url(#paint1_linear_174_4627)"/>
<path opacity="0.182" d="M23.2222 14.22L24.1027 16.5188C24.0915 17.0588 23.6445 17.4878 23.1045 17.4758C22.5645 17.4645 22.1355 17.0175 22.1475 16.4775C22.149 16.4025 22.1602 16.3245 22.1782 16.2548L23.0227 14.1923C23.037 14.1375 23.0925 14.1053 23.1465 14.1188C23.1922 14.1315 23.223 14.1743 23.2222 14.22Z" fill="url(#paint2_linear_174_4627)"/>
<path opacity="0.273" d="M23.2147 14.2131L24.0187 16.5703C24.0067 17.0676 23.5942 17.4606 23.097 17.4493C22.5997 17.4373 22.2082 17.0248 22.218 16.5276C22.2195 16.4601 22.2292 16.3903 22.245 16.3281L23.0302 14.1891C23.043 14.1388 23.094 14.1088 23.1442 14.1216C23.187 14.1306 23.2155 14.1703 23.2147 14.2131Z" fill="url(#paint3_linear_174_4627)"/>
<path opacity="0.364" d="M23.2065 14.2057L23.9332 16.6207C23.9205 17.0752 23.5425 17.4329 23.088 17.4209C22.6335 17.4082 22.2772 17.0302 22.2877 16.5757C22.2892 16.5164 22.2982 16.4542 22.3117 16.3987L23.037 14.1832C23.0482 14.1374 23.0947 14.1097 23.1405 14.1209C23.1817 14.1299 23.208 14.1667 23.2065 14.2057Z" fill="url(#paint4_linear_174_4627)"/>
<path opacity="0.455" d="M23.199 14.1982L23.8493 16.671C23.8358 17.0827 23.4915 17.4052 23.0805 17.3925C22.6688 17.379 22.3485 17.0355 22.359 16.6237C22.3605 16.572 22.368 16.518 22.38 16.47L23.046 14.178C23.0565 14.1367 23.0985 14.1112 23.1398 14.121C23.1765 14.13 23.2005 14.163 23.199 14.1982Z" fill="url(#paint5_linear_174_4627)"/>
<path opacity="0.545" d="M23.1915 14.1913L23.7652 16.7218C23.7517 17.0908 23.4412 17.3781 23.073 17.3646C22.704 17.3511 22.4197 17.0406 22.4302 16.6723C22.4317 16.6281 22.4377 16.5823 22.4482 16.5418L23.055 14.1733C23.064 14.1358 23.1015 14.1133 23.139 14.1216C23.1712 14.1291 23.193 14.1591 23.1915 14.1913Z" fill="url(#paint6_linear_174_4627)"/>
<path opacity="0.636" d="M23.184 14.1839L23.6812 16.7722C23.667 17.0977 23.391 17.3504 23.0655 17.3362C22.74 17.3219 22.4902 17.0459 22.5015 16.7204C22.503 16.6844 22.5082 16.6469 22.5165 16.6132L23.0632 14.1682C23.0707 14.1352 23.1037 14.1149 23.1367 14.1224C23.1652 14.1284 23.1847 14.1554 23.184 14.1839Z" fill="url(#paint7_linear_174_4627)"/>
<path opacity="0.727" d="M23.1757 14.1772L23.5965 16.8232C23.5815 17.106 23.34 17.3235 23.0572 17.3085C22.7745 17.2935 22.5607 17.052 22.572 16.7692C22.5735 16.7407 22.5772 16.7115 22.5832 16.6845L23.0707 14.163C23.0775 14.1345 23.106 14.1157 23.1345 14.1225C23.16 14.1277 23.1772 14.1517 23.1757 14.1772Z" fill="url(#paint8_linear_174_4627)"/>
<path opacity="0.818" d="M23.1683 14.1696L23.5118 16.8733C23.496 17.1133 23.289 17.2956 23.049 17.2798C22.809 17.2641 22.6305 17.0571 22.6425 16.8171C22.6433 16.7968 22.6463 16.7751 22.6508 16.7556L23.0783 14.1576C23.0835 14.1328 23.1075 14.1171 23.1323 14.1223C23.1548 14.1268 23.1698 14.1471 23.1683 14.1696Z" fill="url(#paint9_linear_174_4627)"/>
<path opacity="0.909" d="M23.1607 14.1622L23.4277 16.9237C23.4112 17.1209 23.2387 17.2679 23.0407 17.2514C22.8434 17.2349 22.7002 17.0624 22.7129 16.8652C22.7137 16.8524 22.7152 16.8389 22.7182 16.8269L23.0864 14.1524C23.0902 14.1322 23.1097 14.1187 23.1299 14.1232C23.1494 14.1262 23.1622 14.1434 23.1607 14.1622Z" fill="url(#paint10_linear_174_4627)"/>
<path d="M23.1532 14.1556L23.3437 16.9748C23.3272 17.1293 23.1877 17.2411 23.0332 17.2238C22.8787 17.2073 22.767 17.0678 22.7842 16.9133C22.785 16.9081 22.7857 16.9028 22.7865 16.8976L23.0955 14.1466C23.0985 14.1308 23.1135 14.1196 23.1292 14.1226C23.1442 14.1263 23.1547 14.1398 23.1532 14.1556Z" fill="url(#paint11_linear_174_4627)"/>
</g>
<g opacity="0.58">
<path opacity="0.091" d="M18.7898 13.9957L19.7468 16.2367C19.7363 16.8195 19.2548 17.2837 18.6721 17.2725C18.0893 17.262 17.6251 16.7805 17.6363 16.1977C17.6378 16.1145 17.6506 16.029 17.6701 15.9517L18.5738 13.9657C18.5888 13.9072 18.6488 13.872 18.7073 13.887C18.7576 13.9005 18.7906 13.9462 18.7898 13.9957Z" fill="url(#paint12_linear_174_4627)"/>
<path opacity="0.182" d="M18.7823 13.9891L19.6628 16.2878C19.6515 16.8278 19.2045 17.2568 18.6645 17.2448C18.1245 17.2336 17.6955 16.7866 17.7075 16.2466C17.709 16.1716 17.7203 16.0936 17.7383 16.0238L18.5828 13.9613C18.597 13.9066 18.6525 13.8743 18.7065 13.8878C18.7523 13.9006 18.783 13.9426 18.7823 13.9891Z" fill="url(#paint13_linear_174_4627)"/>
<path opacity="0.273" d="M18.7748 13.9814L19.5788 16.3386C19.5668 16.8359 19.1543 17.2289 18.657 17.2176C18.1598 17.2056 17.7683 16.7931 17.778 16.2959C17.7795 16.2284 17.7893 16.1586 17.805 16.0964L18.5903 13.9574C18.603 13.9071 18.654 13.8771 18.7043 13.8899C18.747 13.8996 18.7755 13.9386 18.7748 13.9814Z" fill="url(#paint14_linear_174_4627)"/>
<path opacity="0.364" d="M18.7665 13.9747L19.4933 16.3897C19.4805 16.8442 19.1025 17.202 18.648 17.19C18.1935 17.1772 17.8373 16.7992 17.8478 16.3447C17.8493 16.2855 17.8583 16.2232 17.8718 16.1677L18.597 13.9522C18.6083 13.9065 18.6548 13.8787 18.7005 13.89C18.7418 13.899 18.768 13.935 18.7665 13.9747Z" fill="url(#paint15_linear_174_4627)"/>
<path opacity="0.455" d="M18.7591 13.9673L19.4093 16.44C19.3958 16.8518 19.0516 17.1743 18.6406 17.1615C18.2288 17.148 17.9086 16.8045 17.9191 16.3928C17.9206 16.341 17.9281 16.287 17.9401 16.239L18.6061 13.947C18.6166 13.9058 18.6586 13.8803 18.6998 13.89C18.7366 13.8983 18.7606 13.9313 18.7591 13.9673Z" fill="url(#paint16_linear_174_4627)"/>
<path opacity="0.545" d="M18.7515 13.9596L19.3253 16.4901C19.3118 16.8591 19.0013 17.1464 18.633 17.1329C18.264 17.1194 17.9798 16.8089 17.9903 16.4406C17.9918 16.3964 17.9978 16.3506 18.0083 16.3101L18.615 13.9416C18.624 13.9041 18.6615 13.8816 18.699 13.8899C18.7305 13.8974 18.7523 13.9274 18.7515 13.9596Z" fill="url(#paint17_linear_174_4627)"/>
<path opacity="0.636" d="M18.7433 13.953L19.2405 16.5412C19.2263 16.8667 18.9503 17.1195 18.6248 17.1052C18.2993 17.091 18.0495 16.815 18.0608 16.4895C18.0623 16.4535 18.0675 16.416 18.0758 16.3822L18.6225 13.9372C18.63 13.9042 18.663 13.884 18.696 13.8915C18.7253 13.8967 18.7448 13.9237 18.7433 13.953Z" fill="url(#paint18_linear_174_4627)"/>
<path opacity="0.727" d="M18.7358 13.9455L19.1565 16.5915C19.1415 16.8743 18.9 17.0918 18.6173 17.0768C18.3345 17.0618 18.1208 16.8203 18.132 16.5375C18.1335 16.509 18.1373 16.4798 18.1433 16.4528L18.6308 13.9313C18.6375 13.9028 18.666 13.884 18.6945 13.8908C18.72 13.8968 18.7373 13.92 18.7358 13.9455Z" fill="url(#paint19_linear_174_4627)"/>
<path opacity="0.818" d="M18.7283 13.9386L19.0718 16.6424C19.0561 16.8824 18.8491 17.0646 18.6091 17.0489C18.3691 17.0331 18.1906 16.8261 18.2026 16.5861C18.2033 16.5659 18.2063 16.5441 18.2108 16.5246L18.6383 13.9266C18.6436 13.9019 18.6676 13.8861 18.6923 13.8914C18.7148 13.8959 18.7298 13.9161 18.7283 13.9386Z" fill="url(#paint20_linear_174_4627)"/>
<path opacity="0.909" d="M18.7208 13.9312L18.9878 16.6927C18.9713 16.89 18.7988 17.037 18.6008 17.0205C18.4035 17.004 18.2603 16.8315 18.273 16.6342C18.2738 16.6215 18.2753 16.608 18.2783 16.596L18.6465 13.9215C18.6503 13.9012 18.6698 13.8877 18.69 13.8922C18.7095 13.8952 18.7223 13.9125 18.7208 13.9312Z" fill="url(#paint21_linear_174_4627)"/>
<path d="M18.7126 13.9239L18.9031 16.7431C18.8866 16.8976 18.7471 17.0094 18.5926 16.9921C18.4381 16.9756 18.3263 16.8361 18.3436 16.6816C18.3443 16.6764 18.3451 16.6711 18.3458 16.6659L18.6548 13.9149C18.6578 13.8991 18.6728 13.8879 18.6886 13.8909C18.7036 13.8946 18.7148 13.9089 18.7126 13.9239Z" fill="url(#paint22_linear_174_4627)"/>
</g>
<g opacity="0.82">
<path opacity="0.091" d="M27.6705 13.9762L28.6275 16.2172C28.617 16.8 28.1355 17.2642 27.5528 17.253C26.97 17.2417 26.5058 16.761 26.517 16.1782C26.5185 16.095 26.5313 16.0095 26.5508 15.9322L27.4545 13.9462C27.4695 13.8877 27.5295 13.8525 27.588 13.8675C27.6383 13.881 27.6713 13.9267 27.6705 13.9762Z" fill="url(#paint23_linear_174_4627)"/>
<path opacity="0.182" d="M27.6623 13.9688L28.5428 16.2676C28.5315 16.8076 28.0845 17.2366 27.5445 17.2246C27.0045 17.2133 26.5755 16.7663 26.5875 16.2263C26.589 16.1513 26.6003 16.0733 26.6183 16.0036L27.4628 13.9411C27.477 13.8863 27.5325 13.8541 27.5865 13.8676C27.633 13.8803 27.6638 13.9231 27.6623 13.9688Z" fill="url(#paint24_linear_174_4627)"/>
<path opacity="0.273" d="M27.6548 13.9619L28.4588 16.3191C28.4468 16.8164 28.0343 17.2094 27.537 17.1981C27.0398 17.1861 26.6483 16.7736 26.658 16.2764C26.6595 16.2089 26.6693 16.1391 26.685 16.0769L27.4703 13.9379C27.483 13.8876 27.534 13.8576 27.5843 13.8704C27.627 13.8794 27.6555 13.9191 27.6548 13.9619Z" fill="url(#paint25_linear_174_4627)"/>
<path opacity="0.364" d="M27.6474 13.9544L28.3749 16.3694C28.3621 16.8239 27.9841 17.1817 27.5296 17.1697C27.0751 17.1569 26.7189 16.7789 26.7294 16.3244C26.7309 16.2652 26.7399 16.2029 26.7534 16.1474L27.4786 13.9319C27.4899 13.8862 27.5364 13.8584 27.5821 13.8697C27.6219 13.8787 27.6481 13.9154 27.6474 13.9544Z" fill="url(#paint26_linear_174_4627)"/>
<path opacity="0.455" d="M27.6391 13.947L28.2893 16.4198C28.2758 16.8315 27.9316 17.154 27.5206 17.1413C27.1088 17.1278 26.7886 16.7843 26.7991 16.3725C26.8006 16.3208 26.8081 16.2668 26.8201 16.2188L27.4861 13.9268C27.4966 13.8855 27.5386 13.86 27.5798 13.8698C27.6166 13.878 27.6406 13.9118 27.6391 13.947Z" fill="url(#paint27_linear_174_4627)"/>
<path opacity="0.545" d="M27.6315 13.9401L28.2053 16.4706C28.1918 16.8396 27.8813 17.1269 27.513 17.1134C27.144 17.0999 26.8598 16.7894 26.8703 16.4211C26.8718 16.3769 26.8778 16.3311 26.8883 16.2906L27.495 13.9221C27.504 13.8846 27.5415 13.8621 27.579 13.8704C27.6113 13.8779 27.633 13.9071 27.6315 13.9401Z" fill="url(#paint28_linear_174_4627)"/>
<path opacity="0.636" d="M27.624 13.9327L28.1213 16.5209C28.107 16.8464 27.831 17.0992 27.5055 17.0849C27.18 17.0707 26.9303 16.7947 26.9415 16.4692C26.943 16.4332 26.9483 16.3957 26.9565 16.3619L27.5033 13.9169C27.5108 13.8839 27.5438 13.8637 27.5768 13.8712C27.606 13.8772 27.6255 13.9034 27.624 13.9327Z" fill="url(#paint29_linear_174_4627)"/>
<path opacity="0.727" d="M27.6165 13.926L28.0373 16.572C28.0223 16.8548 27.7808 17.0723 27.498 17.0573C27.2153 17.0423 27.0015 16.8008 27.0128 16.518C27.0143 16.4895 27.018 16.4603 27.024 16.4333L27.5115 13.9118C27.5183 13.8833 27.5468 13.8645 27.5753 13.8713C27.6 13.8765 27.618 13.8998 27.6165 13.926Z" fill="url(#paint30_linear_174_4627)"/>
<path opacity="0.818" d="M27.6084 13.9184L27.9519 16.6221C27.9361 16.8621 27.7291 17.0444 27.4891 17.0286C27.2491 17.0129 27.0706 16.8059 27.0826 16.5659C27.0834 16.5456 27.0864 16.5239 27.0909 16.5044L27.5184 13.9064C27.5236 13.8816 27.5476 13.8659 27.5724 13.8711C27.5949 13.8756 27.6099 13.8959 27.6084 13.9184Z" fill="url(#paint31_linear_174_4627)"/>
<path opacity="0.909" d="M27.6008 13.911L27.8678 16.6725C27.8513 16.8697 27.6788 17.0167 27.4808 17.0002C27.2835 16.9837 27.1403 16.8112 27.153 16.614C27.1538 16.6012 27.1553 16.5877 27.1583 16.5757L27.5265 13.9012C27.5303 13.881 27.5498 13.8675 27.57 13.872C27.5895 13.875 27.6023 13.8922 27.6008 13.911Z" fill="url(#paint32_linear_174_4627)"/>
<path d="M27.5933 13.9043L27.7838 16.7236C27.7673 16.8781 27.6278 16.9898 27.4733 16.9726C27.3188 16.9561 27.207 16.8166 27.2243 16.6621C27.225 16.6568 27.2258 16.6516 27.2265 16.6463L27.5355 13.8953C27.5385 13.8796 27.5535 13.8683 27.5693 13.8713C27.5843 13.8743 27.5948 13.8886 27.5933 13.9043Z" fill="url(#paint33_linear_174_4627)"/>
</g>
<path opacity="0.49" d="M21.0225 15.1149C19.959 15.1531 19.0995 15.9249 18.9007 16.9254C18.7747 15.6939 18.6465 14.4384 18.6465 14.4279C18.6022 13.1859 19.5727 12.1434 20.8147 12.0991C22.0567 12.0549 23.0992 13.0254 23.1435 14.2674C23.145 14.3034 23.211 16.1686 23.211 16.1686L23.2222 16.6411C22.911 15.7269 22.0387 15.0789 21.0225 15.1149Z" fill="url(#paint34_radial_174_4627)"/>
<path opacity="0.49" d="M25.5158 15.1149C24.4523 15.1531 23.5928 15.9249 23.394 16.9254C23.268 15.6939 23.1398 14.4384 23.1398 14.4279C23.0955 13.1859 24.066 12.1434 25.308 12.0991C26.55 12.0549 27.5925 13.0254 27.6368 14.2674C27.6383 14.3034 27.7043 16.1686 27.7043 16.1686L27.7155 16.6411C27.4043 15.7269 26.5313 15.0789 25.5158 15.1149Z" fill="url(#paint35_radial_174_4627)"/>
<path opacity="0.41" d="M29.9557 15.0592C28.8922 15.0974 28.0327 15.8692 27.834 16.8697C27.708 15.6382 27.5797 14.3827 27.5797 14.3722C27.5355 13.1302 28.506 12.0877 29.748 12.0434C30.99 11.9992 32.0325 12.9697 32.0767 14.2117C32.0782 14.2477 32.1442 16.1129 32.1442 16.1129L32.1555 16.5854C31.8442 15.6704 30.9712 15.0232 29.9557 15.0592Z" fill="url(#paint36_radial_174_4627)"/>
<path opacity="0.17" d="M21.0661 15.8048C20.0026 15.8431 19.1431 16.6148 18.9443 17.6153C18.8183 16.3838 18.6901 15.1283 18.6901 15.1178C18.6458 13.8758 19.6163 12.8333 20.8583 12.7891C22.1003 12.7448 23.1428 13.7153 23.1871 14.9573C23.1886 14.9933 23.2546 16.8586 23.2546 16.8586L23.2658 17.3311C22.9546 16.4168 22.0816 15.7688 21.0661 15.8048Z" fill="url(#paint37_linear_174_4627)"/>
<path opacity="0.17" d="M25.5585 15.8048C24.495 15.8431 23.6355 16.6148 23.4367 17.6153C23.3107 16.3838 23.1825 15.1283 23.1825 15.1178C23.1382 13.8758 24.1087 12.8333 25.3507 12.7891C26.5927 12.7448 27.6352 13.7153 27.6795 14.9573C27.681 14.9933 27.747 16.8586 27.747 16.8586L27.7582 17.3311C27.447 16.4168 26.5747 15.7688 25.5585 15.8048Z" fill="url(#paint38_linear_174_4627)"/>
<path opacity="0.17" d="M29.9993 15.7491C28.9358 15.7874 28.0763 16.5591 27.8775 17.5596C27.7515 16.3281 27.6233 15.0726 27.6233 15.0621C27.579 13.8201 28.5495 12.7776 29.7915 12.7334C31.0335 12.6891 32.076 13.6596 32.1203 14.9016C32.1218 14.9376 32.1878 16.8029 32.1878 16.8029L32.199 17.2754C31.887 16.3604 31.0148 15.7131 29.9993 15.7491Z" fill="url(#paint39_linear_174_4627)"/>
<g opacity="0.26">
<path opacity="0.091" d="M17.8005 34.4889C17.8005 34.3636 16.272 27.6766 16.1813 27.5904C16.1393 26.3004 15.573 25.0704 14.6258 24.1659C14.202 23.7609 13.8083 23.3019 13.4618 22.7934C13.3935 22.6936 13.2105 22.4026 13.1468 22.3014L11.8418 20.4421L11.6693 20.2216L10.02 17.8599C9.95103 17.7954 9.67578 17.5689 9.58353 17.5441C8.89503 16.8984 8.35353 16.6569 7.43553 16.4094C7.40778 16.4019 6.07578 16.4949 6.06528 16.4701C5.02878 16.7859 4.21653 17.2546 4.21578 17.4534C4.20678 17.8899 4.50003 18.2784 4.93203 18.3916L7.13553 18.9811C8.14578 19.2526 9.07053 19.7641 9.82803 20.4751L10.0388 20.6731L11.832 23.2509L11.8425 23.2359L13.2773 25.2826C13.347 25.3944 13.4048 25.5099 13.4798 25.6194C13.8548 26.1676 14.28 26.6619 14.7405 27.0954C15.5805 27.8866 16.0598 32.1661 15.8033 33.9594L17.8005 34.4889Z" fill="url(#paint40_linear_174_4627)"/>
<path opacity="0.182" d="M17.6003 34.1559C17.6003 33.9061 16.1663 27.7569 15.984 27.5851C15.9 26.3806 15.351 25.2211 14.4585 24.3556C14.0708 23.9791 13.71 23.5561 13.3905 23.0874C13.329 22.9974 13.0208 22.5309 12.9638 22.4401L11.7878 20.7684L11.4533 20.3124L9.94804 18.1674C9.81004 18.0384 9.46954 17.7834 9.28654 17.7339C8.66629 17.1526 7.95904 16.8766 7.13254 16.6539C7.07704 16.6396 5.85529 16.7004 5.83504 16.6509C4.89904 16.9479 4.16479 17.3821 4.16329 17.5741C4.15429 18.0106 4.44754 18.3991 4.87954 18.5124L7.08304 19.1019C8.09329 19.3734 9.01804 19.8849 9.77554 20.5959L9.98629 20.7939L11.7795 23.3716L11.79 23.3566L13.2248 25.4034C13.2945 25.5151 13.3523 25.6306 13.4273 25.7401C13.8023 26.2884 14.2275 26.7826 14.688 27.2161C15.5438 28.0224 16.0335 32.0041 15.8025 33.7554L17.6003 34.1559Z" fill="url(#paint41_linear_174_4627)"/>
<path opacity="0.273" d="M17.4008 33.8221C17.4008 33.4471 16.0613 27.8371 15.7883 27.5799C15.663 26.4616 15.1298 25.3734 14.292 24.5446C13.9403 24.1966 13.6118 23.8089 13.32 23.3799C13.2653 23.3004 12.8318 22.6584 12.7815 22.5766L11.7353 21.0924L11.2388 20.4001L9.87751 18.4711C9.67051 18.2776 9.26551 17.9941 8.99026 17.9199C8.43901 17.4031 7.56526 17.0919 6.83101 16.8946C6.74776 16.8729 5.63626 16.9029 5.60626 16.8279C4.77076 17.1054 4.11526 17.5059 4.11226 17.6919C4.10326 18.1284 4.39651 18.5169 4.82851 18.6301L7.03201 19.2196C8.04226 19.4911 8.96701 20.0026 9.72451 20.7136L9.93526 20.9116L11.7285 23.4894L11.739 23.4744L13.1738 25.5211C13.2435 25.6329 13.3013 25.7484 13.3763 25.8579C13.7513 26.4061 14.1765 26.9004 14.637 27.3339C15.5093 28.1551 16.0095 31.8391 15.804 33.5491L17.4008 33.8221Z" fill="url(#paint42_linear_174_4627)"/>
<path opacity="0.364" d="M17.2013 33.4891C17.2013 32.9888 15.9563 27.9173 15.5926 27.5746C15.4253 26.5418 14.9086 25.5248 14.1256 24.7343C13.8091 24.4148 13.5136 24.0623 13.2496 23.6731C13.2016 23.6033 12.6428 22.7858 12.5986 22.7146L11.6821 21.4178L11.0236 20.4901L9.80556 18.7778C9.53031 18.5191 9.06006 18.2078 8.69256 18.1088C8.21031 17.6566 7.17081 17.3108 6.52806 17.1376C6.41706 17.1083 5.41581 17.1068 5.37606 17.0071C4.64106 17.2658 4.06356 17.6318 4.05981 17.8111C4.05006 18.2476 4.34331 18.6368 4.77531 18.7501L6.97881 19.3396C7.98906 19.6111 8.91381 20.1226 9.67131 20.8336L9.88206 21.0316L11.6753 23.6093L11.6858 23.5943L13.1206 25.6411C13.1903 25.7528 13.2481 25.8683 13.3231 25.9778C13.6981 26.5261 14.1233 27.0203 14.5838 27.4538C15.4726 28.2901 15.9826 31.6763 15.8026 33.3443L17.2013 33.4891Z" fill="url(#paint43_linear_174_4627)"/>
<path opacity="0.455" d="M17.001 33.1553C17.001 32.5298 15.8505 27.9968 15.3953 27.5685C15.186 26.6213 14.6858 25.6763 13.9583 24.9233C13.6778 24.633 13.4145 24.315 13.1783 23.9655C13.137 23.9055 12.4538 22.9125 12.4156 22.8518L11.628 21.7425L10.8075 20.5793L9.73355 19.083C9.3893 18.7598 8.8538 18.42 8.3948 18.2963C7.98155 17.9085 6.77555 17.5283 6.2243 17.3798C6.08555 17.343 5.19455 17.3108 5.14505 17.1863C4.51055 17.4263 4.01105 17.7578 4.00655 17.931C3.99755 18.3675 4.2908 18.756 4.7228 18.8693L6.9263 19.4588C7.93655 19.7303 8.8613 20.2418 9.6188 20.9528L9.82955 21.1508L11.6228 23.7285L11.6333 23.7135L13.068 25.7603C13.1378 25.872 13.1955 25.9875 13.2705 26.097C13.6455 26.6453 14.0708 27.1395 14.5313 27.573C15.4358 28.425 15.9563 31.5128 15.8025 33.1395L17.001 33.1553Z" fill="url(#paint44_linear_174_4627)"/>
<path opacity="0.545" d="M16.8015 32.8225C16.8015 32.0725 15.7455 28.078 15.1995 27.5635C14.9483 26.7017 14.4645 25.8287 13.7918 25.1132C13.5465 24.8522 13.3163 24.5687 13.1085 24.259C13.0748 24.2087 12.2655 23.0402 12.234 22.99L11.5763 22.0682L10.5938 20.6687L9.66376 19.3892C9.25051 19.0015 8.65051 18.6325 8.09926 18.4847C7.75501 18.1615 6.38251 17.746 5.92351 17.623C5.75701 17.5795 4.97626 17.515 4.91701 17.3657C4.38301 17.5862 3.96151 17.8832 3.95626 18.0505C3.94726 18.487 4.24051 18.8755 4.67251 18.9887L6.87601 19.5782C7.88626 19.8497 8.81101 20.3612 9.56851 21.0722L9.77926 21.2702L11.5725 23.848L11.583 23.833L13.0178 25.8797C13.0875 25.9915 13.1453 26.107 13.2203 26.2165C13.5953 26.7647 14.0205 27.259 14.481 27.6925C15.402 28.5595 15.933 31.3495 15.8048 32.9342L16.8015 32.8225Z" fill="url(#paint45_linear_174_4627)"/>
<path opacity="0.636" d="M16.6021 32.4887C16.6021 31.6135 15.6406 28.1575 15.0038 27.5575C14.7113 26.782 14.2418 25.9817 13.6253 25.3022C13.4146 25.0705 13.2188 24.8215 13.0381 24.5515C13.0111 24.5117 12.0766 23.1677 12.0511 23.1265L11.5223 22.3922L10.3771 20.7572L9.59105 19.6937C9.1088 19.2415 8.44355 18.844 7.8008 18.6715C7.52555 18.4127 5.98655 17.9627 5.61905 17.8637C5.4248 17.8127 4.7543 17.7175 4.6853 17.5427C4.2518 17.7445 3.9083 18.007 3.9023 18.1682C3.8933 18.6047 4.18655 18.9932 4.61855 19.1065L6.82205 19.696C7.8323 19.9675 8.75705 20.479 9.51455 21.19L9.7253 21.388L11.5186 23.9657L11.5291 23.9507L12.9638 25.9975C13.0336 26.1092 13.0913 26.2247 13.1663 26.3342C13.5413 26.8825 13.9666 27.3767 14.4271 27.8102C15.3638 28.6922 15.9053 31.1852 15.8026 32.7272L16.6021 32.4887Z" fill="url(#paint46_linear_174_4627)"/>
<path opacity="0.727" d="M16.4018 32.1557C16.4018 31.1552 15.5348 28.2384 14.8066 27.5522C14.4721 26.8622 14.0176 26.1354 13.4581 25.4919C13.2826 25.2902 13.1198 25.0749 12.9668 24.8447C12.9466 24.8147 11.8868 23.2952 11.8681 23.2644L11.4691 22.7177L10.1618 20.8472L9.51981 20.0004C8.96856 19.4837 8.23881 19.0577 7.50456 18.8597C7.29756 18.6662 5.59281 18.1809 5.31756 18.1067C5.09556 18.0482 4.53531 17.9214 4.45581 17.7219C4.12281 17.9042 3.85731 18.1329 3.84981 18.2874C3.84081 18.7239 4.13406 19.1124 4.56606 19.2257L6.76956 19.8152C7.77981 20.0867 8.70456 20.5982 9.46206 21.3092L9.67281 21.5072L11.4661 24.0849L11.4766 24.0699L12.9113 26.1167C12.9811 26.2284 13.0388 26.3439 13.1138 26.4534C13.4888 27.0017 13.9141 27.4959 14.3746 27.9294C15.3278 28.8264 15.8798 31.0217 15.8026 32.5224L16.4018 32.1557Z" fill="url(#paint47_linear_174_4627)"/>
<path opacity="0.818" d="M16.2023 31.8219C16.2023 30.6969 15.4298 28.3179 14.6108 27.5469C14.2343 26.9424 13.7933 26.2907 13.2915 25.6817C13.1498 25.5099 13.0215 25.3292 12.8963 25.1379C12.8828 25.1177 11.6978 23.4227 11.6858 23.4024L11.4165 23.0424L9.94728 20.9357L9.44929 20.3049C8.82904 19.7237 8.03479 19.2692 7.20829 19.0464C7.07029 18.9174 5.19979 18.3977 5.01604 18.3482C4.76629 18.2829 4.31629 18.1247 4.22704 17.8997C3.99379 18.0632 3.80704 18.2574 3.79879 18.4059C3.78979 18.8424 4.08304 19.2309 4.51504 19.3442L6.71854 19.9337C7.72879 20.2052 8.65354 20.7167 9.41104 21.4277L9.62179 21.6257L11.415 24.2034L11.4255 24.1884L12.8603 26.2352C12.93 26.3469 12.9878 26.4624 13.0628 26.5719C13.4378 27.1202 13.863 27.6144 14.3235 28.0479C15.2925 28.9607 15.855 30.8574 15.804 32.3162L16.2023 31.8219Z" fill="url(#paint48_linear_174_4627)"/>
<path opacity="0.909" d="M16.0028 31.4889C16.0028 30.2386 15.3248 28.3989 14.4151 27.5416C13.9966 27.0226 13.5661 26.4481 13.1251 25.8714C13.0171 25.7304 12.9233 25.5826 12.8266 25.4311C12.8198 25.4214 11.5103 23.5501 11.5036 23.5404L11.3633 23.3679L9.73206 21.0256L9.37731 20.6116C8.68881 19.9659 7.82856 19.4829 6.91056 19.2354C6.84156 19.1709 4.80456 18.6159 4.71231 18.5911C4.43481 18.5184 4.09506 18.3286 3.99606 18.0789C3.86331 18.2229 3.75456 18.3834 3.74556 18.5251C3.73656 18.9616 4.02981 19.3501 4.46181 19.4634L6.66531 20.0529C7.67556 20.3244 8.60031 20.8359 9.35781 21.5469L9.56856 21.7449L11.3618 24.3226L11.3723 24.3076L12.8071 26.3544C12.8768 26.4661 12.9346 26.5816 13.0096 26.6911C13.3846 27.2394 13.8098 27.7336 14.2703 28.1671C15.2558 29.0949 15.8281 30.6939 15.8026 32.1114L16.0028 31.4889Z" fill="url(#paint49_linear_174_4627)"/>
<path d="M15.8026 31.1551C15.8026 29.7796 15.2191 28.4783 14.2178 27.5356C13.7573 27.1021 13.3321 26.6078 12.9571 26.0596C12.8821 25.9501 12.8243 25.8346 12.7546 25.7228L11.3198 23.6761L11.3093 23.6911L9.51606 21.1133L9.3053 20.9153C8.5478 20.2051 7.62306 19.6928 6.61281 19.4213L4.41005 18.8326C4.1048 18.7523 3.8753 18.5318 3.76655 18.2573C3.7343 18.3826 3.70431 18.5086 3.69381 18.6443C3.68481 19.0808 3.97806 19.4693 4.41005 19.5826L6.61355 20.1721C7.6238 20.4436 8.54855 20.9551 9.30606 21.6661L9.51681 21.8641L11.3101 24.4418L11.3206 24.4268L12.7553 26.4736C12.8251 26.5853 12.8828 26.7008 12.9578 26.8103C13.3328 27.3586 13.7581 27.8528 14.2186 28.2863C15.2198 29.2291 15.8033 30.5303 15.8033 31.9058V31.1551H15.8026Z" fill="#E5A015"/>
</g>
<g opacity="0.3">
<path opacity="0.091" d="M22.1775 32.0048C18.657 32.0048 15.8025 31.5811 15.8025 31.0591V33.9106C15.8025 34.4333 18.657 34.8563 22.1775 34.8563C25.698 34.8563 28.5525 34.4326 28.5525 33.9106V31.0591C28.5525 31.5811 25.6987 32.0048 22.1775 32.0048Z" fill="url(#paint50_linear_174_4627)"/>
<path opacity="0.182" d="M22.1775 32.2492C18.657 32.2492 15.8025 31.8255 15.8025 31.3035V33.945C15.8025 34.4677 18.657 34.8907 22.1775 34.8907C25.698 34.8907 28.5525 34.467 28.5525 33.945V31.3035C28.5525 31.8255 25.6987 32.2492 22.1775 32.2492Z" fill="url(#paint51_linear_174_4627)"/>
<path opacity="0.273" d="M22.1775 32.4931C18.657 32.4931 15.8025 32.0694 15.8025 31.5474V33.9789C15.8025 34.5016 18.657 34.9246 22.1775 34.9246C25.698 34.9246 28.5525 34.5009 28.5525 33.9789V31.5474C28.5525 32.0701 25.6987 32.4931 22.1775 32.4931Z" fill="url(#paint52_linear_174_4627)"/>
<path opacity="0.364" d="M22.1775 32.7375C18.657 32.7375 15.8025 32.3137 15.8025 31.7917V34.0125C15.8025 34.5352 18.657 34.9582 22.1775 34.9582C25.698 34.9582 28.5525 34.5345 28.5525 34.0125V31.7917C28.5525 32.3137 25.6987 32.7375 22.1775 32.7375Z" fill="url(#paint53_linear_174_4627)"/>
<path opacity="0.455" d="M22.1775 32.9821C18.657 32.9821 15.8025 32.5584 15.8025 32.0364V34.0471C15.8025 34.5699 18.657 34.9929 22.1775 34.9929C25.698 34.9929 28.5525 34.5691 28.5525 34.0471V32.0364C28.5525 32.5584 25.6987 32.9821 22.1775 32.9821Z" fill="url(#paint54_linear_174_4627)"/>
<path opacity="0.545" d="M22.1775 33.2258C18.657 33.2258 15.8025 32.802 15.8025 32.28V34.0808C15.8025 34.6035 18.657 35.0265 22.1775 35.0265C25.698 35.0265 28.5525 34.6028 28.5525 34.0808V32.28C28.5525 32.8028 25.6987 33.2258 22.1775 33.2258Z" fill="url(#paint55_linear_174_4627)"/>
<path opacity="0.636" d="M22.1775 33.4704C18.657 33.4704 15.8025 33.0467 15.8025 32.5247V34.1154C15.8025 34.6382 18.657 35.0612 22.1775 35.0612C25.698 35.0612 28.5525 34.6374 28.5525 34.1154V32.5247C28.5525 33.0467 25.6987 33.4704 22.1775 33.4704Z" fill="url(#paint56_linear_174_4627)"/>
<path opacity="0.727" d="M22.1775 33.7148C18.657 33.7148 15.8025 33.291 15.8025 32.769V34.1498C15.8025 34.6725 18.657 35.0955 22.1775 35.0955C25.698 35.0955 28.5525 34.6718 28.5525 34.1498V32.769C28.5525 33.291 25.6987 33.7148 22.1775 33.7148Z" fill="url(#paint57_linear_174_4627)"/>
<path opacity="0.818" d="M22.1775 33.9587C18.657 33.9587 15.8025 33.5349 15.8025 33.0129V34.1829C15.8025 34.7057 18.657 35.1287 22.1775 35.1287C25.698 35.1287 28.5525 34.7049 28.5525 34.1829V33.0129C28.5525 33.5357 25.6987 33.9587 22.1775 33.9587Z" fill="url(#paint58_linear_174_4627)"/>
<path opacity="0.909" d="M22.1775 34.2031C18.657 34.2031 15.8025 33.7793 15.8025 33.2573V34.2173C15.8025 34.7401 18.657 35.1631 22.1775 35.1631C25.698 35.1631 28.5525 34.7393 28.5525 34.2173V33.2573C28.5525 33.7793 25.6987 34.2031 22.1775 34.2031Z" fill="url(#paint59_linear_174_4627)"/>
<path d="M22.1775 34.4477C18.657 34.4477 15.8025 34.024 15.8025 33.502V34.252C15.8025 34.7747 18.657 35.1977 22.1775 35.1977C25.698 35.1977 28.5525 34.774 28.5525 34.252V33.502C28.5525 34.024 25.6987 34.4477 22.1775 34.4477Z" fill="#E5A015"/>
</g>
<g opacity="0.34">
<path opacity="0.091" d="M31.7122 24.1141C31.4317 24.8184 30.9412 25.4416 30.3345 25.9576C29.2177 26.9079 28.5525 28.2841 28.5525 29.7504V31.6351C28.5525 30.1681 29.217 29.1946 30.3345 28.2436C30.9412 27.7276 31.5247 27.2814 31.8052 26.5771C32.325 25.2714 32.313 18.6728 32.3062 15.4021C32.2987 18.6263 32.1937 22.9051 31.7122 24.1141Z" fill="url(#paint60_linear_174_4627)"/>
<path opacity="0.182" d="M31.7122 24.315C31.4317 25.0193 30.9412 25.6425 30.3345 26.1585C29.2177 27.1088 28.5525 28.485 28.5525 29.9513V31.722C28.5525 30.255 29.217 29.241 30.3345 28.2908C30.9412 27.7748 31.5157 27.3105 31.7955 26.6063C32.3152 25.3005 32.313 18.873 32.3055 15.603C32.2987 18.8273 32.1937 23.106 31.7122 24.315Z" fill="url(#paint61_linear_174_4627)"/>
<path opacity="0.273" d="M31.7122 24.5162C31.4317 25.2204 30.9412 25.8437 30.3345 26.3597C29.2177 27.3099 28.5525 28.6862 28.5525 30.1524V31.8099C28.5525 30.3429 29.217 29.2884 30.3345 28.3382C30.9412 27.8222 31.506 27.3399 31.7865 26.6364C32.3062 25.3307 32.313 19.0742 32.3055 15.8042C32.2987 19.0284 32.1937 23.3072 31.7122 24.5162Z" fill="url(#paint62_linear_174_4627)"/>
<path opacity="0.364" d="M31.7122 24.7171C31.4317 25.4214 30.9412 26.0446 30.3345 26.5606C29.2177 27.5109 28.5525 28.8871 28.5525 30.3534V31.8976C28.5525 30.4306 29.217 29.3364 30.3345 28.3861C30.9412 27.8701 31.497 27.3706 31.7775 26.6664C32.2972 25.3606 32.313 19.2759 32.3062 16.0051C32.2987 19.2294 32.1937 23.5074 31.7122 24.7171Z" fill="url(#paint63_linear_174_4627)"/>
<path opacity="0.455" d="M31.7122 24.9181C31.4317 25.6223 30.9412 26.2456 30.3345 26.7616C29.2177 27.7118 28.5525 29.0881 28.5525 30.5543V31.9853C28.5525 30.5183 29.217 29.3836 30.3345 28.4333C30.9412 27.9173 31.4872 27.3998 31.7677 26.6956C32.2875 25.3898 32.313 19.4761 32.3055 16.2061C32.2987 19.4303 32.1937 23.7083 31.7122 24.9181Z" fill="url(#paint64_linear_174_4627)"/>
<path opacity="0.545" d="M31.7122 25.119C31.4317 25.8233 30.9412 26.4465 30.3345 26.9625C29.2177 27.9128 28.5525 29.289 28.5525 30.7552V32.0723C28.5525 30.6053 29.217 29.4307 30.3345 28.4797C30.9412 27.9637 31.4782 27.429 31.7587 26.7247C32.2785 25.419 32.313 19.677 32.3055 16.4062C32.2987 19.6313 32.1937 23.9093 31.7122 25.119Z" fill="url(#paint65_linear_174_4627)"/>
<path opacity="0.636" d="M31.7122 25.3202C31.4317 26.0244 30.9412 26.6477 30.3345 27.1637C29.2177 28.1139 28.5525 29.4902 28.5525 30.9564V32.1602C28.5525 30.6932 29.217 29.4782 30.3345 28.5279C30.9412 28.0119 31.4692 27.4592 31.7497 26.7549C32.2695 25.4492 32.3137 19.8782 32.3062 16.6082C32.2987 19.8324 32.1937 24.1104 31.7122 25.3202Z" fill="url(#paint66_linear_174_4627)"/>
<path opacity="0.727" d="M31.7122 25.5211C31.4317 26.2253 30.9412 26.8486 30.3345 27.3646C29.2177 28.3148 28.5525 29.6911 28.5525 31.1573V32.2478C28.5525 30.7808 29.217 29.5261 30.3345 28.5751C30.9412 28.0591 31.4595 27.4883 31.74 26.7848C32.2597 25.4791 32.313 20.0798 32.3055 16.8091C32.2987 20.0326 32.1937 24.3113 31.7122 25.5211Z" fill="url(#paint67_linear_174_4627)"/>
<path opacity="0.818" d="M31.7122 25.722C31.4317 26.4262 30.9412 27.0495 30.3345 27.5655C29.2177 28.5157 28.5525 29.892 28.5525 31.3582V32.3355C28.5525 30.8685 29.217 29.5732 30.3345 28.623C30.9412 28.107 31.4505 27.519 31.731 26.8147C32.2507 25.509 32.313 20.2807 32.3062 17.0107C32.2987 20.2335 32.1937 24.5122 31.7122 25.722Z" fill="url(#paint68_linear_174_4627)"/>
<path opacity="0.909" d="M31.7122 25.9232C31.4317 26.6274 30.9412 27.2507 30.3345 27.7667C29.2177 28.7169 28.5525 30.0932 28.5525 31.5594V32.4227C28.5525 30.9557 29.217 29.62 30.3345 28.6697C30.9412 28.1537 31.4415 27.5477 31.7212 26.8434C32.241 25.5377 32.313 20.4812 32.3055 17.2104C32.2987 20.4347 32.1937 24.7134 31.7122 25.9232Z" fill="url(#paint69_linear_174_4627)"/>
<path d="M31.7122 26.1241C31.4317 26.8283 30.9412 27.4516 30.3345 27.9676C29.2177 28.9178 28.5525 30.2941 28.5525 31.7603V32.5103C28.5525 31.0433 29.217 29.6678 30.3345 28.7176C30.9412 28.2016 31.4317 27.5783 31.7122 26.8741C32.232 25.5683 32.313 20.6828 32.3055 17.4128C32.2987 20.6356 32.1937 24.9143 31.7122 26.1241Z" fill="#E5A015"/>
</g>
<defs>
<radialGradient id="paint0_radial_174_4627" cx="0" cy="0" r="1" gradientUnits="userSpaceOnUse" gradientTransform="translate(19.1806 15.9052) rotate(90) scale(18.2423 18.2422)">
<stop stop-color="#FFE16E"/>
<stop offset="0.629" stop-color="#FFD226"/>
<stop offset="0.75" stop-color="#FDCD23"/>
<stop offset="0.9" stop-color="#F6BD1B"/>
<stop offset="1" stop-color="#F0AF13"/>
</radialGradient>
<linearGradient id="paint1_linear_174_4627" x1="23.0997" y1="14.4259" x2="22.5437" y2="17.722" gradientUnits="userSpaceOnUse">
<stop stop-color="#FCC822" stop-opacity="0.6"/>
<stop offset="0.999" stop-color="#FFD32B"/>
<stop offset="1" stop-color="#FFD32B"/>
</linearGradient>
<linearGradient id="paint2_linear_174_4627" x1="23.0991" y1="14.4231" x2="22.551" y2="17.6949" gradientUnits="userSpaceOnUse">
<stop stop-color="#FBC622" stop-opacity="0.64"/>
<stop offset="0.999" stop-color="#FFD32B"/>
<stop offset="1" stop-color="#FFD32B"/>
</linearGradient>
<linearGradient id="paint3_linear_174_4627" x1="23.0986" y1="14.4199" x2="22.5578" y2="17.6683" gradientUnits="userSpaceOnUse">
<stop stop-color="#FBC322" stop-opacity="0.68"/>
<stop offset="0.999" stop-color="#FFD32B"/>
<stop offset="1" stop-color="#FFD32B"/>
</linearGradient>
<linearGradient id="paint4_linear_174_4627" x1="23.0981" y1="14.417" x2="22.5637" y2="17.6415" gradientUnits="userSpaceOnUse">
<stop stop-color="#FAC122" stop-opacity="0.72"/>
<stop offset="0.999" stop-color="#FFD32B"/>
<stop offset="1" stop-color="#FFD32B"/>
</linearGradient>
<linearGradient id="paint5_linear_174_4627" x1="23.0977" y1="14.4149" x2="22.5705" y2="17.6145" gradientUnits="userSpaceOnUse">
<stop stop-color="#FABE22" stop-opacity="0.76"/>
<stop offset="0.999" stop-color="#FFD32B"/>
<stop offset="1" stop-color="#FFD32B"/>
</linearGradient>
<linearGradient id="paint6_linear_174_4627" x1="23.0964" y1="14.4119" x2="22.5765" y2="17.5881" gradientUnits="userSpaceOnUse">
<stop stop-color="#F9BC21" stop-opacity="0.8"/>
<stop offset="0.999" stop-color="#FFD32B"/>
<stop offset="1" stop-color="#FFD32B"/>
</linearGradient>
<linearGradient id="paint7_linear_174_4627" x1="23.0959" y1="14.409" x2="22.5831" y2="17.5612" gradientUnits="userSpaceOnUse">
<stop stop-color="#F9B921" stop-opacity="0.84"/>
<stop offset="0.999" stop-color="#FFD32B"/>
<stop offset="1" stop-color="#FFD32B"/>
</linearGradient>
<linearGradient id="paint8_linear_174_4627" x1="23.0948" y1="14.407" x2="22.5892" y2="17.535" gradientUnits="userSpaceOnUse">
<stop stop-color="#F8B721" stop-opacity="0.88"/>
<stop offset="0.999" stop-color="#FFD32B"/>
<stop offset="1" stop-color="#FFD32B"/>
</linearGradient>
<linearGradient id="paint9_linear_174_4627" x1="23.0936" y1="14.4041" x2="22.5945" y2="17.5081" gradientUnits="userSpaceOnUse">
<stop stop-color="#F8B421" stop-opacity="0.92"/>
<stop offset="0.999" stop-color="#FFD32B"/>
<stop offset="1" stop-color="#FFD32B"/>
</linearGradient>
<linearGradient id="paint10_linear_174_4627" x1="23.0633" y1="14.3973" x2="22.5714" y2="17.4772" gradientUnits="userSpaceOnUse">
<stop stop-color="#F7B221" stop-opacity="0.96"/>
<stop offset="0.999" stop-color="#FFD32B"/>
<stop offset="1" stop-color="#FFD32B"/>
</linearGradient>
<linearGradient id="paint11_linear_174_4627" x1="23.0284" y1="14.3891" x2="22.5429" y2="17.445" gradientUnits="userSpaceOnUse">
<stop stop-color="#F7AF21"/>
<stop offset="1" stop-color="#FFD32B"/>
</linearGradient>
<linearGradient id="paint12_linear_174_4627" x1="18.6592" y1="14.1953" x2="18.104" y2="17.4912" gradientUnits="userSpaceOnUse">
<stop stop-color="#FCC822" stop-opacity="0.6"/>
<stop offset="0.999" stop-color="#FFD32B"/>
<stop offset="1" stop-color="#FFD32B"/>
</linearGradient>
<linearGradient id="paint13_linear_174_4627" x1="18.6594" y1="14.1923" x2="18.1106" y2="17.4642" gradientUnits="userSpaceOnUse">
<stop stop-color="#FBC622" stop-opacity="0.64"/>
<stop offset="0.999" stop-color="#FFD32B"/>
<stop offset="1" stop-color="#FFD32B"/>
</linearGradient>
<linearGradient id="paint14_linear_174_4627" x1="18.6589" y1="14.1891" x2="18.1174" y2="17.4377" gradientUnits="userSpaceOnUse">
<stop stop-color="#FBC322" stop-opacity="0.68"/>
<stop offset="0.999" stop-color="#FFD32B"/>
<stop offset="1" stop-color="#FFD32B"/>
</linearGradient>
<linearGradient id="paint15_linear_174_4627" x1="18.6585" y1="14.187" x2="18.124" y2="17.4107" gradientUnits="userSpaceOnUse">
<stop stop-color="#FAC122" stop-opacity="0.72"/>
<stop offset="0.999" stop-color="#FFD32B"/>
<stop offset="1" stop-color="#FFD32B"/>
</linearGradient>
<linearGradient id="paint16_linear_174_4627" x1="18.6573" y1="14.1842" x2="18.1302" y2="17.3846" gradientUnits="userSpaceOnUse">
<stop stop-color="#FABE22" stop-opacity="0.76"/>
<stop offset="0.999" stop-color="#FFD32B"/>
<stop offset="1" stop-color="#FFD32B"/>
</linearGradient>
<linearGradient id="paint17_linear_174_4627" x1="18.6567" y1="14.1811" x2="18.1368" y2="17.3574" gradientUnits="userSpaceOnUse">
<stop stop-color="#F9BC21" stop-opacity="0.8"/>
<stop offset="0.999" stop-color="#FFD32B"/>
<stop offset="1" stop-color="#FFD32B"/>
</linearGradient>
<linearGradient id="paint18_linear_174_4627" x1="18.6555" y1="14.1784" x2="18.1427" y2="17.3305" gradientUnits="userSpaceOnUse">
<stop stop-color="#F9B921" stop-opacity="0.84"/>
<stop offset="0.999" stop-color="#FFD32B"/>
<stop offset="1" stop-color="#FFD32B"/>
</linearGradient>
<linearGradient id="paint19_linear_174_4627" x1="18.6543" y1="14.1764" x2="18.1487" y2="17.3044" gradientUnits="userSpaceOnUse">
<stop stop-color="#F8B721" stop-opacity="0.88"/>
<stop offset="0.999" stop-color="#FFD32B"/>
<stop offset="1" stop-color="#FFD32B"/>
</linearGradient>
<linearGradient id="paint20_linear_174_4627" x1="18.6539" y1="14.1733" x2="18.1548" y2="17.2773" gradientUnits="userSpaceOnUse">
<stop stop-color="#F8B421" stop-opacity="0.92"/>
<stop offset="0.999" stop-color="#FFD32B"/>
<stop offset="1" stop-color="#FFD32B"/>
</linearGradient>
<linearGradient id="paint21_linear_174_4627" x1="18.6236" y1="14.1665" x2="18.1317" y2="17.2464" gradientUnits="userSpaceOnUse">
<stop stop-color="#F7B221" stop-opacity="0.96"/>
<stop offset="0.999" stop-color="#FFD32B"/>
<stop offset="1" stop-color="#FFD32B"/>
</linearGradient>
<linearGradient id="paint22_linear_174_4627" x1="18.5889" y1="14.159" x2="18.1034" y2="17.215" gradientUnits="userSpaceOnUse">
<stop stop-color="#F7AF21"/>
<stop offset="1" stop-color="#FFD32B"/>
</linearGradient>
<linearGradient id="paint23_linear_174_4627" x1="27.5399" y1="14.1739" x2="26.9837" y2="17.4692" gradientUnits="userSpaceOnUse">
<stop stop-color="#FAC722" stop-opacity="0.6"/>
<stop offset="0.999" stop-color="#FDCD23"/>
<stop offset="1" stop-color="#FDCD23"/>
</linearGradient>
<linearGradient id="paint24_linear_174_4627" x1="27.5393" y1="14.1711" x2="26.9905" y2="17.443" gradientUnits="userSpaceOnUse">
<stop stop-color="#F8C322" stop-opacity="0.64"/>
<stop offset="0.999" stop-color="#FDCD23"/>
<stop offset="1" stop-color="#FDCD23"/>
</linearGradient>
<linearGradient id="paint25_linear_174_4627" x1="27.5388" y1="14.1679" x2="26.9972" y2="17.4157" gradientUnits="userSpaceOnUse">
<stop stop-color="#F7BF22" stop-opacity="0.68"/>
<stop offset="0.999" stop-color="#FDCD23"/>
<stop offset="1" stop-color="#FDCD23"/>
</linearGradient>
<linearGradient id="paint26_linear_174_4627" x1="27.5384" y1="14.165" x2="27.0041" y2="17.3895" gradientUnits="userSpaceOnUse">
<stop stop-color="#F5BB22" stop-opacity="0.72"/>
<stop offset="0.999" stop-color="#FDCD23"/>
<stop offset="1" stop-color="#FDCD23"/>
</linearGradient>
<linearGradient id="paint27_linear_174_4627" x1="27.5378" y1="14.1621" x2="27.0107" y2="17.3625" gradientUnits="userSpaceOnUse">
<stop stop-color="#F3B722" stop-opacity="0.76"/>
<stop offset="0.999" stop-color="#FDCD23"/>
<stop offset="1" stop-color="#FDCD23"/>
</linearGradient>
<linearGradient id="paint28_linear_174_4627" x1="27.5366" y1="14.1599" x2="27.0167" y2="17.3361" gradientUnits="userSpaceOnUse">
<stop stop-color="#F1B421" stop-opacity="0.8"/>
<stop offset="0.999" stop-color="#FDCD23"/>
<stop offset="1" stop-color="#FDCD23"/>
</linearGradient>
<linearGradient id="paint29_linear_174_4627" x1="27.5361" y1="14.157" x2="27.0234" y2="17.3091" gradientUnits="userSpaceOnUse">
<stop stop-color="#EFB021" stop-opacity="0.84"/>
<stop offset="0.999" stop-color="#FDCD23"/>
<stop offset="1" stop-color="#FDCD23"/>
</linearGradient>
<linearGradient id="paint30_linear_174_4627" x1="27.5348" y1="14.1543" x2="27.0293" y2="17.2823" gradientUnits="userSpaceOnUse">
<stop stop-color="#EDAC21" stop-opacity="0.88"/>
<stop offset="0.999" stop-color="#FDCD23"/>
<stop offset="1" stop-color="#FDCD23"/>
</linearGradient>
<linearGradient id="paint31_linear_174_4627" x1="27.5338" y1="14.152" x2="27.0347" y2="17.2561" gradientUnits="userSpaceOnUse">
<stop stop-color="#ECA821" stop-opacity="0.92"/>
<stop offset="0.999" stop-color="#FDCD23"/>
<stop offset="1" stop-color="#FDCD23"/>
</linearGradient>
<linearGradient id="paint32_linear_174_4627" x1="27.5036" y1="14.1452" x2="27.0116" y2="17.2252" gradientUnits="userSpaceOnUse">
<stop stop-color="#EAA421" stop-opacity="0.96"/>
<stop offset="0.999" stop-color="#FDCD23"/>
<stop offset="1" stop-color="#FDCD23"/>
</linearGradient>
<linearGradient id="paint33_linear_174_4627" x1="27.4686" y1="14.137" x2="26.9833" y2="17.1937" gradientUnits="userSpaceOnUse">
<stop stop-color="#E8A021"/>
<stop offset="1" stop-color="#FDCD23"/>
</linearGradient>
<radialGradient id="paint34_radial_174_4627" cx="0" cy="0" r="1" gradientUnits="userSpaceOnUse" gradientTransform="translate(20.6323 15.8686) rotate(90) scale(3.7935 4.46153)">
<stop offset="0.224" stop-color="#FFD73F" stop-opacity="0"/>
<stop offset="0.999" stop-color="#F0AF13"/>
</radialGradient>
<radialGradient id="paint35_radial_174_4627" cx="0" cy="0" r="1" gradientUnits="userSpaceOnUse" gradientTransform="translate(25.1248 15.8686) rotate(90) scale(3.7935 4.46153)">
<stop offset="0.224" stop-color="#FFD73F" stop-opacity="0"/>
<stop offset="0.999" stop-color="#F0AF13"/>
</radialGradient>
<radialGradient id="paint36_radial_174_4627" cx="0" cy="0" r="1" gradientUnits="userSpaceOnUse" gradientTransform="translate(29.566 15.8122) rotate(90) scale(3.7935 4.46154)">
<stop offset="0.224" stop-color="#FFD73F" stop-opacity="0"/>
<stop offset="0.999" stop-color="#F0AF13"/>
</radialGradient>
<linearGradient id="paint37_linear_174_4627" x1="20.9768" y1="10.2631" x2="20.9768" y2="15.0908" gradientUnits="userSpaceOnUse">
<stop offset="0.249" stop-color="#FFF7E6"/>
<stop offset="1" stop-color="white" stop-opacity="0"/>
</linearGradient>
<linearGradient id="paint38_linear_174_4627" x1="25.47" y1="10.6336" x2="25.47" y2="15.4613" gradientUnits="userSpaceOnUse">
<stop offset="0.249" stop-color="#FFF7E6"/>
<stop offset="1" stop-color="white" stop-opacity="0"/>
</linearGradient>
<linearGradient id="paint39_linear_174_4627" x1="29.91" y1="9.92314" x2="29.91" y2="14.7509" gradientUnits="userSpaceOnUse">
<stop offset="0.249" stop-color="#FFF7E6"/>
<stop offset="1" stop-color="white" stop-opacity="0"/>
</linearGradient>
<linearGradient id="paint40_linear_174_4627" x1="4.21578" y1="25.4499" x2="17.8005" y2="25.4499" gradientUnits="userSpaceOnUse">
<stop stop-color="#EFAE13"/>
<stop offset="0.519" stop-color="#FCCC24" stop-opacity="0.536"/>
<stop offset="0.999" stop-color="#FCCB23"/>
</linearGradient>
<linearGradient id="paint41_linear_174_4627" x1="4.16329" y1="25.4026" x2="17.6003" y2="25.4026" gradientUnits="userSpaceOnUse">
<stop stop-color="#EEAC13"/>
<stop offset="0.519" stop-color="#F9C723" stop-opacity="0.583"/>
<stop offset="0.999" stop-color="#F9C621"/>
</linearGradient>
<linearGradient id="paint42_linear_174_4627" x1="4.11151" y1="25.3254" x2="17.4008" y2="25.3254" gradientUnits="userSpaceOnUse">
<stop stop-color="#EDAB14"/>
<stop offset="0.519" stop-color="#F7C321" stop-opacity="0.629"/>
<stop offset="0.999" stop-color="#F7C220"/>
</linearGradient>
<linearGradient id="paint43_linear_174_4627" x1="4.05906" y1="25.2481" x2="17.2013" y2="25.2481" gradientUnits="userSpaceOnUse">
<stop stop-color="#ECAA14"/>
<stop offset="0.519" stop-color="#F5BF20" stop-opacity="0.675"/>
<stop offset="0.999" stop-color="#F5BE1F"/>
</linearGradient>
<linearGradient id="paint44_linear_174_4627" x1="4.0073" y1="25.1708" x2="17.001" y2="25.1708" gradientUnits="userSpaceOnUse">
<stop stop-color="#EBA814"/>
<stop offset="0.519" stop-color="#F3BA1E" stop-opacity="0.722"/>
<stop offset="0.999" stop-color="#F3BA1D"/>
</linearGradient>
<linearGradient id="paint45_linear_174_4627" x1="3.95476" y1="25.1485" x2="16.8015" y2="25.1485" gradientUnits="userSpaceOnUse">
<stop stop-color="#EAA714"/>
<stop offset="0.519" stop-color="#F0B61D" stop-opacity="0.768"/>
<stop offset="0.999" stop-color="#F0B51C"/>
</linearGradient>
<linearGradient id="paint46_linear_174_4627" x1="3.9023" y1="25.135" x2="16.6021" y2="25.135" gradientUnits="userSpaceOnUse">
<stop stop-color="#E9A514"/>
<stop offset="0.519" stop-color="#EEB11B" stop-opacity="0.815"/>
<stop offset="0.999" stop-color="#EEB11A"/>
</linearGradient>
<linearGradient id="paint47_linear_174_4627" x1="3.85056" y1="25.1214" x2="16.4018" y2="25.1214" gradientUnits="userSpaceOnUse">
<stop stop-color="#E8A414"/>
<stop offset="0.519" stop-color="#ECAD1A" stop-opacity="0.861"/>
<stop offset="0.999" stop-color="#ECAD19"/>
</linearGradient>
<linearGradient id="paint48_linear_174_4627" x1="3.79804" y1="25.1079" x2="16.2023" y2="25.1079" gradientUnits="userSpaceOnUse">
<stop stop-color="#E7A315"/>
<stop offset="0.519" stop-color="#EAA918" stop-opacity="0.907"/>
<stop offset="0.999" stop-color="#EAA918"/>
</linearGradient>
<linearGradient id="paint49_linear_174_4627" x1="3.74631" y1="25.0944" x2="16.0028" y2="25.0944" gradientUnits="userSpaceOnUse">
<stop stop-color="#E6A115"/>
<stop offset="0.519" stop-color="#E7A417" stop-opacity="0.954"/>
<stop offset="0.999" stop-color="#E7A416"/>
</linearGradient>
<linearGradient id="paint50_linear_174_4627" x1="15.8025" y1="32.9581" x2="28.5525" y2="32.9581" gradientUnits="userSpaceOnUse">
<stop stop-color="#EFAE13"/>
<stop offset="0.519" stop-color="#FCCC24" stop-opacity="0.536"/>
<stop offset="0.999" stop-color="#FCCB23"/>
</linearGradient>
<linearGradient id="paint51_linear_174_4627" x1="15.8025" y1="33.0967" x2="28.5525" y2="33.0967" gradientUnits="userSpaceOnUse">
<stop stop-color="#EEAC13"/>
<stop offset="0.519" stop-color="#F9C723" stop-opacity="0.583"/>
<stop offset="0.999" stop-color="#F9C621"/>
</linearGradient>
<linearGradient id="paint52_linear_174_4627" x1="15.8025" y1="33.2364" x2="28.5525" y2="33.2364" gradientUnits="userSpaceOnUse">
<stop stop-color="#EDAB14"/>
<stop offset="0.519" stop-color="#F7C321" stop-opacity="0.629"/>
<stop offset="0.999" stop-color="#F7C220"/>
</linearGradient>
<linearGradient id="paint53_linear_174_4627" x1="15.8025" y1="33.375" x2="28.5525" y2="33.375" gradientUnits="userSpaceOnUse">
<stop stop-color="#ECAA14"/>
<stop offset="0.519" stop-color="#F5BF20" stop-opacity="0.675"/>
<stop offset="0.999" stop-color="#F5BE1F"/>
</linearGradient>
<linearGradient id="paint54_linear_174_4627" x1="15.8025" y1="33.5146" x2="28.5525" y2="33.5146" gradientUnits="userSpaceOnUse">
<stop stop-color="#EBA814"/>
<stop offset="0.519" stop-color="#F3BA1E" stop-opacity="0.722"/>
<stop offset="0.999" stop-color="#F3BA1D"/>
</linearGradient>
<linearGradient id="paint55_linear_174_4627" x1="15.8025" y1="33.6533" x2="28.5525" y2="33.6533" gradientUnits="userSpaceOnUse">
<stop stop-color="#EAA714"/>
<stop offset="0.519" stop-color="#F0B61D" stop-opacity="0.768"/>
<stop offset="0.999" stop-color="#F0B51C"/>
</linearGradient>
<linearGradient id="paint56_linear_174_4627" x1="15.8025" y1="33.7929" x2="28.5525" y2="33.7929" gradientUnits="userSpaceOnUse">
<stop stop-color="#E9A514"/>
<stop offset="0.519" stop-color="#EEB11B" stop-opacity="0.815"/>
<stop offset="0.999" stop-color="#EEB11A"/>
</linearGradient>
<linearGradient id="paint57_linear_174_4627" x1="15.8025" y1="33.9315" x2="28.5525" y2="33.9315" gradientUnits="userSpaceOnUse">
<stop stop-color="#E8A414"/>
<stop offset="0.519" stop-color="#ECAD1A" stop-opacity="0.861"/>
<stop offset="0.999" stop-color="#ECAD19"/>
</linearGradient>
<linearGradient id="paint58_linear_174_4627" x1="15.8025" y1="34.0712" x2="28.5525" y2="34.0712" gradientUnits="userSpaceOnUse">
<stop stop-color="#E7A315"/>
<stop offset="0.519" stop-color="#EAA918" stop-opacity="0.907"/>
<stop offset="0.999" stop-color="#EAA918"/>
</linearGradient>
<linearGradient id="paint59_linear_174_4627" x1="15.8025" y1="34.2106" x2="28.5525" y2="34.2106" gradientUnits="userSpaceOnUse">
<stop stop-color="#E6A115"/>
<stop offset="0.519" stop-color="#E7A417" stop-opacity="0.954"/>
<stop offset="0.999" stop-color="#E7A416"/>
</linearGradient>
<linearGradient id="paint60_linear_174_4627" x1="28.5525" y1="23.5194" x2="32.3077" y2="23.5194" gradientUnits="userSpaceOnUse">
<stop stop-color="#EFAE13"/>
<stop offset="0.519" stop-color="#FCCC24" stop-opacity="0.536"/>
<stop offset="0.999" stop-color="#FCCB23"/>
</linearGradient>
<linearGradient id="paint61_linear_174_4627" x1="28.5525" y1="23.6633" x2="32.3077" y2="23.6633" gradientUnits="userSpaceOnUse">
<stop stop-color="#EEAC13"/>
<stop offset="0.519" stop-color="#F9C723" stop-opacity="0.583"/>
<stop offset="0.999" stop-color="#F9C621"/>
</linearGradient>
<linearGradient id="paint62_linear_174_4627" x1="28.5525" y1="23.8074" x2="32.307" y2="23.8074" gradientUnits="userSpaceOnUse">
<stop stop-color="#EDAB14"/>
<stop offset="0.519" stop-color="#F7C321" stop-opacity="0.629"/>
<stop offset="0.999" stop-color="#F7C220"/>
</linearGradient>
<linearGradient id="paint63_linear_174_4627" x1="28.5525" y1="23.9521" x2="32.307" y2="23.9521" gradientUnits="userSpaceOnUse">
<stop stop-color="#ECAA14"/>
<stop offset="0.519" stop-color="#F5BF20" stop-opacity="0.675"/>
<stop offset="0.999" stop-color="#F5BE1F"/>
</linearGradient>
<linearGradient id="paint64_linear_174_4627" x1="28.5525" y1="24.0961" x2="32.307" y2="24.0961" gradientUnits="userSpaceOnUse">
<stop stop-color="#EBA814"/>
<stop offset="0.519" stop-color="#F3BA1E" stop-opacity="0.722"/>
<stop offset="0.999" stop-color="#F3BA1D"/>
</linearGradient>
<linearGradient id="paint65_linear_174_4627" x1="28.5525" y1="24.24" x2="32.3062" y2="24.24" gradientUnits="userSpaceOnUse">
<stop stop-color="#EAA714"/>
<stop offset="0.519" stop-color="#F0B61D" stop-opacity="0.768"/>
<stop offset="0.999" stop-color="#F0B51C"/>
</linearGradient>
<linearGradient id="paint66_linear_174_4627" x1="28.5525" y1="24.3849" x2="32.3062" y2="24.3849" gradientUnits="userSpaceOnUse">
<stop stop-color="#E9A514"/>
<stop offset="0.519" stop-color="#EEB11B" stop-opacity="0.815"/>
<stop offset="0.999" stop-color="#EEB11A"/>
</linearGradient>
<linearGradient id="paint67_linear_174_4627" x1="28.5525" y1="24.5288" x2="32.3062" y2="24.5288" gradientUnits="userSpaceOnUse">
<stop stop-color="#E8A414"/>
<stop offset="0.519" stop-color="#ECAD1A" stop-opacity="0.861"/>
<stop offset="0.999" stop-color="#ECAD19"/>
</linearGradient>
<linearGradient id="paint68_linear_174_4627" x1="28.5525" y1="24.6727" x2="32.3062" y2="24.6727" gradientUnits="userSpaceOnUse">
<stop stop-color="#E7A315"/>
<stop offset="0.519" stop-color="#EAA918" stop-opacity="0.907"/>
<stop offset="0.999" stop-color="#EAA918"/>
</linearGradient>
<linearGradient id="paint69_linear_174_4627" x1="28.5525" y1="24.8177" x2="32.3062" y2="24.8177" gradientUnits="userSpaceOnUse">
<stop stop-color="#E6A115"/>
<stop offset="0.519" stop-color="#E7A417" stop-opacity="0.954"/>
<stop offset="0.999" stop-color="#E7A416"/>
</linearGradient>
</defs>
</svg>
