<svg width="36" height="36" viewBox="0 0 36 36" fill="none" xmlns="http://www.w3.org/2000/svg">
<path d="M29.0058 25.4836C29.0058 26.3175 29.0058 27.1479 29.0058 27.9818C29.0058 29.2928 29.0058 30.6075 29.0058 31.9185C29.0058 32.2536 29.0305 32.5995 28.9953 32.9346C29.0129 32.7889 29.034 32.6432 29.0516 32.4976C29.0305 32.6432 28.9953 32.7816 28.9459 32.9164C28.9988 32.7853 29.0516 32.6542 29.1044 32.5267C29.0481 32.6578 28.9812 32.778 28.9002 32.8945C28.9812 32.7853 29.0657 32.6724 29.1467 32.5631C29.0622 32.676 28.9671 32.7743 28.8579 32.8617C28.9636 32.778 29.0727 32.6906 29.1784 32.6068C29.0692 32.6942 28.9495 32.7634 28.8227 32.818C28.9495 32.7634 29.0763 32.7088 29.1995 32.6542C29.0692 32.7088 28.9319 32.7452 28.7945 32.7634C28.9354 32.7452 29.0763 32.7234 29.2171 32.7051C28.9706 32.7343 28.7135 32.7161 28.467 32.7161C27.9387 32.7161 27.4104 32.7161 26.8821 32.7161C25.1176 32.7161 23.3496 32.7161 21.5851 32.7161C19.4544 32.7161 17.3236 32.7161 15.1963 32.7161C13.3509 32.7161 11.5054 32.7161 9.65988 32.7161C8.78644 32.7161 7.91301 32.7197 7.03957 32.7161C6.96561 32.7161 6.89165 32.7124 6.82121 32.7051C6.96209 32.7234 7.10296 32.7452 7.24384 32.7634C7.10296 32.7416 6.96913 32.7051 6.83882 32.6542C6.96561 32.7088 7.0924 32.7634 7.21567 32.818C7.08888 32.7598 6.97265 32.6906 6.85995 32.6068C6.96561 32.6906 7.07479 32.778 7.18045 32.8617C7.07127 32.7743 6.97617 32.676 6.89165 32.5631C6.97265 32.6724 7.05718 32.7853 7.13818 32.8945C7.05366 32.7816 6.98674 32.6578 6.93391 32.5267C6.98674 32.6578 7.03957 32.7889 7.0924 32.9164C7.03957 32.7816 7.00435 32.6396 6.98674 32.4976C7.00435 32.6432 7.02548 32.7889 7.04309 32.9346C7.01492 32.6578 7.03253 32.3665 7.03253 32.0897C7.03253 31.5179 7.03253 30.9462 7.03253 30.3744C7.03253 29.0488 7.03253 27.7232 7.03253 26.394C7.03253 26.0881 7.03253 25.7822 7.03253 25.4763C6.13091 25.8623 5.2293 26.2483 4.32769 26.6344C4.98629 27.1843 5.68011 27.6067 6.50424 27.8471C7.26849 28.0692 8.06445 28.1129 8.84632 28.0037C10.2516 27.807 11.611 27.0896 12.5091 25.9352C11.7625 25.9352 11.0158 25.9352 10.2692 25.9352C10.6601 26.4377 11.1567 26.8638 11.685 27.1988C12.2098 27.5339 12.8155 27.7924 13.4248 27.9235C14.8301 28.2222 16.2741 28.0292 17.5349 27.3081C18.1372 26.9658 18.7042 26.4887 19.1339 25.9352C18.3872 25.9352 17.6406 25.9352 16.8939 25.9352C17.2848 26.4377 17.7814 26.8638 18.3097 27.1988C18.8345 27.5339 19.4438 27.7924 20.0496 27.9235C21.4548 28.2222 22.8988 28.0292 24.1596 27.3117C24.7619 26.9694 25.3289 26.4923 25.7586 25.9388C25.012 25.9388 24.2653 25.9388 23.5187 25.9388C25.3782 28.3351 29.0516 28.7721 31.4007 26.9002C31.5839 26.7982 31.7353 26.6562 31.8445 26.4778C31.9854 26.3212 32.0805 26.1354 32.1298 25.9206C32.2354 25.5273 32.1861 25.0065 31.9713 24.6569C31.7529 24.3073 31.4289 23.9977 31.0239 23.9031C30.64 23.812 30.1328 23.8047 29.8018 24.0669C29.4883 24.3182 29.1502 24.5222 28.7875 24.6824C28.9142 24.6278 29.041 24.5731 29.1643 24.5185C28.8297 24.6605 28.481 24.7589 28.1218 24.8135C28.2627 24.7953 28.4036 24.7734 28.5444 24.7552C28.1641 24.8062 27.7802 24.8099 27.3998 24.7589C27.5407 24.7771 27.6816 24.7989 27.8224 24.8171C27.4456 24.7625 27.0793 24.6605 26.7271 24.5076C26.8539 24.5622 26.9807 24.6168 27.104 24.6715C26.7764 24.5258 26.4736 24.3437 26.1883 24.1216C26.2939 24.2053 26.4031 24.2927 26.5088 24.3765C26.2305 24.1543 25.9805 23.8994 25.7586 23.6154C25.5297 23.3204 24.9908 23.1201 24.6386 23.1347C24.2442 23.1529 23.7758 23.284 23.5187 23.6154C23.2968 23.8994 23.0502 24.1507 22.7685 24.3765C22.8741 24.2927 22.9833 24.2053 23.089 24.1216C22.8072 24.3437 22.5008 24.5258 22.1768 24.6715C22.3036 24.6168 22.4304 24.5622 22.5537 24.5076C22.2015 24.6605 21.8387 24.7625 21.4583 24.8171C21.5992 24.7989 21.7401 24.7771 21.881 24.7589C21.5112 24.8062 21.1378 24.8062 20.7645 24.7589C20.9054 24.7771 21.0463 24.7989 21.1871 24.8171C20.8103 24.7625 20.444 24.6605 20.0918 24.5076C20.2186 24.5622 20.3454 24.6168 20.4687 24.6715C20.1447 24.5258 19.8382 24.3437 19.5565 24.1216C19.6621 24.2053 19.7713 24.2927 19.877 24.3765C19.5988 24.1543 19.3487 23.8994 19.1303 23.6154C18.9014 23.3204 18.3626 23.1201 18.0104 23.1347C17.6159 23.1529 17.1475 23.284 16.8904 23.6154C16.6685 23.8994 16.422 24.1543 16.1437 24.3765C16.2494 24.2927 16.3586 24.2053 16.4642 24.1216C16.1825 24.3437 15.8761 24.5258 15.5521 24.6715C15.6789 24.6168 15.8056 24.5622 15.9289 24.5076C15.5767 24.6605 15.214 24.7625 14.8336 24.8171C14.9745 24.7989 15.1153 24.7771 15.2562 24.7589C14.8864 24.8062 14.5131 24.8062 14.1398 24.7589C14.2806 24.7771 14.4215 24.7989 14.5624 24.8171C14.1856 24.7625 13.8193 24.6605 13.4706 24.5076C13.5974 24.5622 13.7242 24.6168 13.8475 24.6715C13.5234 24.5258 13.217 24.3437 12.9353 24.1216C13.0409 24.2053 13.1501 24.2927 13.2558 24.3765C12.9775 24.1543 12.7275 23.8994 12.5091 23.6154C12.2802 23.3204 11.7413 23.1201 11.3891 23.1347C10.9947 23.1529 10.5263 23.284 10.2692 23.6154C10.0473 23.8994 9.80076 24.1543 9.52253 24.3765C9.62818 24.2927 9.73736 24.2053 9.84302 24.1216C9.56127 24.3437 9.25838 24.5258 8.93084 24.6715C9.05763 24.6168 9.18442 24.5622 9.30769 24.5076C8.9555 24.6605 8.59274 24.7625 8.21589 24.8171C8.35677 24.7989 8.49765 24.7771 8.63852 24.7589C8.25816 24.8099 7.87427 24.8062 7.49038 24.7552C7.63125 24.7734 7.77213 24.7953 7.91301 24.8135C7.55377 24.7589 7.20158 24.6605 6.867 24.5185C6.99378 24.5731 7.12057 24.6278 7.24384 24.6824C6.91982 24.5404 6.61694 24.3583 6.33518 24.1361C6.44084 24.2199 6.55002 24.3073 6.65568 24.3911C6.6275 24.3692 6.59933 24.3437 6.57115 24.3219C6.35632 24.1434 6.14148 23.9759 5.87029 23.8994C5.52514 23.8011 5.16238 23.8412 4.83837 23.9832C4.26429 24.2345 3.86279 24.8244 3.86279 25.4799C3.86279 26.8419 3.86279 28.2003 3.86279 29.5623C3.86279 30.3926 3.86279 31.2266 3.86279 32.0569C3.86279 32.9273 3.87688 33.805 4.40517 34.5515C4.72566 35.0067 5.10955 35.4146 5.61671 35.6513C6.08161 35.8662 6.50072 35.99 7.01844 35.9973C7.06775 35.9973 7.12057 35.9973 7.16988 35.9973C7.48685 35.9973 7.80031 35.9973 8.11728 35.9973C9.39926 35.9973 10.6848 35.9973 11.9667 35.9973C13.7559 35.9973 15.545 35.9973 17.3342 35.9973C19.1796 35.9973 21.0216 35.9973 22.8671 35.9973C24.3146 35.9973 25.7656 35.9973 27.2132 35.9973C27.8189 35.9973 28.4212 36.0046 29.0269 35.9973C29.5552 35.99 29.999 35.8589 30.4709 35.6331C30.9711 35.3927 31.3585 34.9739 31.6684 34.5151C32.0312 33.9834 32.1791 33.3097 32.1826 32.6651C32.1826 32.0788 32.1826 31.4961 32.1826 30.9098C32.1826 29.2127 32.1826 27.5193 32.1826 25.8223C32.1826 25.7094 32.1826 25.5965 32.1826 25.4836C32.1826 25.0648 32.0065 24.6205 31.7177 24.3255C31.443 24.0414 30.9922 23.8266 30.5977 23.8448C30.1892 23.863 29.763 24.0014 29.4778 24.3255C29.1854 24.6423 29.0058 25.0393 29.0058 25.4836Z" fill="white"/>
<path d="M30.5802 22.0708C30.5802 22.2638 30.5661 22.4531 30.545 22.6462C30.5626 22.5005 30.5837 22.3548 30.6014 22.2091C30.5485 22.5988 30.4499 22.9739 30.3055 23.3344C30.3583 23.2033 30.4112 23.0722 30.464 22.9448C30.3161 23.2944 30.1294 23.6258 29.904 23.928C29.985 23.8188 30.0695 23.7059 30.1505 23.5966C29.9322 23.8807 29.6856 24.1356 29.4109 24.3614C29.5166 24.2777 29.6258 24.1903 29.7314 24.1065C29.4356 24.3432 29.1151 24.5362 28.7699 24.6892C28.8967 24.6345 29.0235 24.5799 29.1468 24.5253C28.8122 24.6673 28.4635 24.7656 28.1043 24.8203C28.2452 24.8021 28.3861 24.7802 28.5269 24.762C28.1466 24.813 27.7627 24.8166 27.3823 24.7656C27.5232 24.7839 27.6641 24.8057 27.8049 24.8239C27.4281 24.7693 27.0618 24.6673 26.7096 24.5144C26.8364 24.569 26.9632 24.6236 27.0865 24.6782C26.7625 24.5326 26.456 24.3505 26.1743 24.1283C26.2799 24.2121 26.3891 24.2995 26.4948 24.3833C26.2166 24.1611 25.9665 23.9062 25.7481 23.6221C25.5192 23.3272 24.9804 23.1269 24.6282 23.1414C24.2337 23.1596 23.7653 23.2907 23.5082 23.6221C23.2863 23.9062 23.0398 24.1575 22.758 24.3833C22.8637 24.2995 22.9729 24.2121 23.0785 24.1283C22.7968 24.3505 22.4904 24.5326 22.1663 24.6782C22.2931 24.6236 22.4199 24.569 22.5432 24.5144C22.191 24.6673 21.8282 24.7693 21.4479 24.8239C21.5887 24.8057 21.7296 24.7839 21.8705 24.7656C21.5007 24.813 21.1274 24.813 20.754 24.7656C20.8949 24.7839 21.0358 24.8057 21.1767 24.8239C20.7998 24.7693 20.4336 24.6673 20.0814 24.5144C20.2081 24.569 20.3349 24.6236 20.4582 24.6782C20.1342 24.5326 19.8278 24.3505 19.546 24.1283C19.6517 24.2121 19.7609 24.2995 19.8665 24.3833C19.5883 24.1611 19.3382 23.9062 19.1163 23.6221C18.8874 23.3272 18.3486 23.1269 17.9964 23.1414C17.6019 23.1596 17.1335 23.2907 16.8764 23.6221C16.6545 23.9062 16.408 24.1611 16.1298 24.3833C16.2354 24.2995 16.3446 24.2121 16.4503 24.1283C16.1685 24.3505 15.8621 24.5326 15.5381 24.6782C15.6649 24.6236 15.7917 24.569 15.9149 24.5144C15.5627 24.6673 15.2 24.7693 14.8196 24.8239C14.9605 24.8057 15.1014 24.7839 15.2422 24.7656C14.8724 24.813 14.4991 24.813 14.1258 24.7656C14.2667 24.7839 14.4075 24.8057 14.5484 24.8239C14.1716 24.7693 13.8053 24.6673 13.4531 24.5144C13.5799 24.569 13.7067 24.6236 13.8299 24.6782C13.5059 24.5326 13.1995 24.3505 12.9178 24.1283C13.0234 24.2121 13.1326 24.2995 13.2383 24.3833C12.96 24.1611 12.71 23.9062 12.4916 23.6221C12.2627 23.3272 11.7238 23.1269 11.3716 23.1414C10.9772 23.1596 10.5088 23.2907 10.2517 23.6221C10.0298 23.9062 9.78325 24.1611 9.50502 24.3833C9.61067 24.2995 9.71985 24.2121 9.82551 24.1283C9.54376 24.3505 9.23735 24.5326 8.91333 24.6782C9.04012 24.6236 9.16691 24.569 9.29018 24.5144C8.93799 24.6673 8.57171 24.7693 8.19486 24.8239C8.33574 24.8057 8.47661 24.7839 8.61749 24.7656C8.23712 24.8166 7.85323 24.813 7.47287 24.762C7.61374 24.7802 7.75462 24.8021 7.8955 24.8203C7.53626 24.7656 7.18759 24.6673 6.85301 24.5253C6.9798 24.5799 7.10659 24.6345 7.22985 24.6892C6.8847 24.5362 6.56421 24.3432 6.26837 24.1065C6.37402 24.1903 6.4832 24.2777 6.58886 24.3614C6.31415 24.1356 6.0641 23.8807 5.84926 23.5966C5.93026 23.7059 6.01479 23.8188 6.09579 23.928C5.87039 23.6258 5.68373 23.298 5.53581 22.9448C5.58864 23.0759 5.64146 23.207 5.69429 23.3344C5.54989 22.9739 5.45128 22.5952 5.39845 22.2091C5.41606 22.3548 5.43719 22.5005 5.4548 22.6462C5.40902 22.2528 5.40902 21.8595 5.45832 21.4662C5.44071 21.6119 5.41958 21.7576 5.40197 21.9032C5.4548 21.5281 5.54989 21.1676 5.69077 20.818C5.63794 20.9491 5.58511 21.0802 5.53228 21.2077C5.67668 20.8544 5.86687 20.523 6.09227 20.2171C6.01127 20.3264 5.92674 20.4393 5.84574 20.5485C6.0641 20.2608 6.31415 20.0023 6.59238 19.7765C6.48673 19.8602 6.37755 19.9476 6.27189 20.0314C6.56773 19.7983 6.88823 19.6017 7.22985 19.4523C7.10306 19.507 6.97627 19.5616 6.85301 19.6162C7.19111 19.4706 7.53978 19.3722 7.90254 19.3176C7.76166 19.3358 7.62079 19.3577 7.47991 19.3759C7.85676 19.3249 8.24065 19.3358 8.62101 19.3358C9.1176 19.3358 9.6142 19.3358 10.1143 19.3358C11.7133 19.3358 13.3157 19.3395 14.9147 19.3395C18.412 19.3431 21.9092 19.3467 25.41 19.3467C26.0193 19.3467 26.6321 19.3467 27.2414 19.3467C27.6676 19.3467 28.1008 19.3322 28.5269 19.3868C28.3861 19.3686 28.2452 19.3467 28.1043 19.3285C28.4671 19.3832 28.8157 19.4815 29.1538 19.6235C29.027 19.5689 28.9003 19.5143 28.777 19.4596C29.1186 19.6089 29.4391 19.802 29.735 20.035C29.6293 19.9513 29.5201 19.8639 29.4145 19.7801C29.6927 20.0059 29.9428 20.2645 30.1611 20.5485C30.0801 20.4393 29.9956 20.3264 29.9146 20.2171C30.14 20.523 30.3302 20.8508 30.4746 21.204C30.4217 21.0729 30.3689 20.9418 30.3161 20.8144C30.4569 21.164 30.552 21.5245 30.6049 21.896C30.5873 21.7503 30.5661 21.6046 30.5485 21.4589C30.5661 21.6665 30.5802 21.8668 30.5802 22.0708C30.5837 22.4932 30.7563 22.9302 31.0451 23.2288C31.3198 23.5129 31.7706 23.7277 32.1651 23.7095C32.5736 23.6913 32.9998 23.5529 33.2851 23.2288C33.5703 22.9084 33.7535 22.5114 33.75 22.0708C33.7429 21.0802 33.5069 20.1297 33.0667 19.2521C32.6476 18.4108 32.0172 17.7407 31.2916 17.1835C30.6683 16.6992 29.9005 16.3532 29.1327 16.2076C28.5727 16.1019 28.0268 16.0765 27.4598 16.0765C24.2267 16.0728 20.9935 16.0728 17.7604 16.0692C14.6294 16.0655 11.4984 16.0619 8.37096 16.0619C7.75462 16.0619 7.13828 16.1056 6.53956 16.2695C5.64499 16.5171 4.84551 16.9978 4.15521 17.6242C2.86267 18.7968 2.1125 20.6978 2.27098 22.4713C2.36255 23.5129 2.64783 24.5399 3.23599 25.4029C3.81358 26.2515 4.56023 26.998 5.47593 27.4423C6.44446 27.9121 7.51865 28.1743 8.59284 28.0396C9.11056 27.9777 9.60363 27.8903 10.0861 27.69C10.5651 27.4897 11.0124 27.2748 11.428 26.9543C11.8224 26.6484 12.1887 26.3352 12.4987 25.9383C11.752 25.9383 11.0054 25.9383 10.2587 25.9383C10.6496 26.4408 11.1462 26.8669 11.6745 27.202C12.1993 27.537 12.8086 27.7956 13.4144 27.9267C14.8196 28.2253 16.2636 28.0323 17.5244 27.3112C18.1267 26.9689 18.6937 26.4918 19.1234 25.9383C18.3767 25.9383 17.6301 25.9383 16.8835 25.9383C17.2744 26.4408 17.771 26.8669 18.2993 27.202C18.8276 27.537 19.4333 27.7956 20.0391 27.9267C21.4443 28.2253 22.8883 28.0323 24.1492 27.3149C24.7514 26.9725 25.3185 26.4955 25.7481 25.9419C25.0015 25.9419 24.2548 25.9419 23.5082 25.9419C24.607 27.3549 26.4596 28.1852 28.2064 28.0723C29.1855 28.0104 30.1541 27.73 30.9923 27.1874C31.7847 26.6703 32.4574 25.9711 32.9399 25.1407C33.4717 24.223 33.7429 23.1451 33.75 22.078C33.7535 21.6592 33.5703 21.215 33.2851 20.92C33.0103 20.6359 32.5595 20.4211 32.1651 20.4393C31.3022 20.472 30.5873 21.153 30.5802 22.0708Z" fill="white"/>
<path d="M18.7579 12.722C18.7579 14.1787 18.7579 15.639 18.7579 17.0957C18.7579 17.2997 18.7579 17.5036 18.7579 17.7039C19.2862 17.1576 19.8145 16.6114 20.3428 16.0651C18.7931 16.0651 17.2435 16.0615 15.6939 16.0615C16.2221 16.6077 16.7504 17.154 17.2787 17.7003C17.2787 16.2363 17.2787 14.7723 17.2787 13.3047C17.2787 13.0789 17.2646 12.8458 17.2858 12.62C17.2682 12.7657 17.247 12.9114 17.2294 13.0571C17.24 12.9915 17.2541 12.9296 17.2752 12.8677C17.2224 12.9988 17.1695 13.1299 17.1167 13.2573C17.1484 13.1809 17.1836 13.1153 17.2294 13.0498C17.1484 13.159 17.0639 13.2719 16.9829 13.3812C17.0216 13.3338 17.0639 13.2901 17.1132 13.2464C17.0075 13.3302 16.8984 13.4176 16.7927 13.5013C16.8561 13.454 16.9195 13.4139 16.9934 13.3848C16.8667 13.4394 16.7399 13.4941 16.6166 13.5487C16.6765 13.5268 16.7363 13.5123 16.7997 13.5013C16.6589 13.5196 16.518 13.5414 16.3771 13.5596C16.7469 13.5232 17.1343 13.5523 17.5041 13.5523C18.0747 13.5523 18.6452 13.5523 19.2123 13.5523C19.3637 13.5523 19.5187 13.545 19.6701 13.5596C19.5292 13.5414 19.3884 13.5196 19.2475 13.5013C19.3109 13.5123 19.3707 13.5268 19.4306 13.5487C19.3038 13.4941 19.177 13.4394 19.0538 13.3848C19.1277 13.4176 19.1911 13.454 19.2545 13.5013C19.1489 13.4176 19.0397 13.3302 18.934 13.2464C18.9798 13.2865 19.0221 13.3302 19.0643 13.3812C18.9833 13.2719 18.8988 13.159 18.8178 13.0498C18.8636 13.1153 18.9023 13.1809 18.9305 13.2573C18.8777 13.1262 18.8248 12.9951 18.772 12.8677C18.7931 12.9296 18.8072 12.9915 18.8178 13.0571C18.8002 12.9114 18.7791 12.7657 18.7615 12.62C18.7544 12.6528 18.7579 12.6856 18.7579 12.722C18.772 13.1517 18.927 13.5742 19.2228 13.8801C19.4975 14.1641 19.9483 14.379 20.3428 14.3608C20.7513 14.3426 21.1775 14.2042 21.4628 13.8801C21.741 13.5669 21.9418 13.159 21.9277 12.722C21.903 11.8662 21.5086 11.116 20.8112 10.6499C20.4379 10.3986 19.98 10.2857 19.5398 10.282C19.251 10.2784 18.9587 10.282 18.6699 10.282C17.9444 10.282 17.2188 10.2748 16.4933 10.282C15.1761 10.2966 14.1442 11.3636 14.109 12.722C14.1055 12.8786 14.109 13.0352 14.109 13.1882C14.109 14.0403 14.109 14.8961 14.109 15.7483C14.109 16.3965 14.109 17.0484 14.109 17.6966C14.109 18.5816 14.8345 19.3354 15.6939 19.3354C17.2435 19.3354 18.7931 19.3391 20.3428 19.3391C21.1986 19.3391 21.9277 18.5889 21.9277 17.7003C21.9277 16.2436 21.9277 14.7832 21.9277 13.3265C21.9277 13.1226 21.9277 12.9187 21.9277 12.7184C21.9277 12.2996 21.7516 11.8553 21.4628 11.5603C21.1881 11.2762 20.7373 11.0614 20.3428 11.0796C19.9343 11.0978 19.5081 11.2362 19.2228 11.5603C18.9375 11.8844 18.7579 12.2777 18.7579 12.722Z" fill="white"/>
<path d="M18.7596 5.62467C18.7596 5.72663 18.7526 5.8286 18.742 5.92693C18.7596 5.78126 18.7808 5.63559 18.7984 5.48992C18.7702 5.70114 18.7174 5.90872 18.6434 6.10538C18.6962 5.97427 18.7491 5.84317 18.8019 5.71571C18.7244 5.90872 18.6223 6.08717 18.5025 6.25469C18.5835 6.14543 18.6681 6.03254 18.7491 5.92329C18.6152 6.10173 18.4638 6.25833 18.2947 6.39307C18.4004 6.30931 18.5096 6.22191 18.6152 6.13815C18.4532 6.26197 18.2807 6.36394 18.094 6.4477C18.2208 6.39307 18.3476 6.33845 18.4708 6.28382C18.2771 6.36394 18.0799 6.41856 17.8756 6.44406C18.0165 6.42585 18.1574 6.404 18.2983 6.38579C18.101 6.40764 17.9073 6.40764 17.7101 6.38579C17.851 6.404 17.9919 6.42585 18.1327 6.44406C17.9285 6.41492 17.7277 6.3603 17.5375 6.28382C17.6643 6.33845 17.7911 6.39307 17.9144 6.4477C17.7277 6.36758 17.5551 6.26197 17.3931 6.13815C17.4988 6.22191 17.608 6.30931 17.7136 6.39307C17.5411 6.25469 17.3896 6.09809 17.2593 5.92329C17.3403 6.03254 17.4248 6.14543 17.5058 6.25469C17.3861 6.08717 17.2875 5.90872 17.2065 5.71571C17.2593 5.84681 17.3121 5.97791 17.365 6.10538C17.2875 5.90508 17.2346 5.70114 17.21 5.48992C17.2276 5.63559 17.2487 5.78126 17.2663 5.92693C17.2487 5.77034 17.2417 5.61374 17.2593 5.4535C17.2417 5.59917 17.2206 5.74484 17.203 5.89051C17.2346 5.67201 17.3016 5.46079 17.3826 5.25321C17.3297 5.38431 17.2769 5.51541 17.2241 5.64287C17.534 4.88903 18.006 4.20803 18.4849 3.5598C18.4039 3.66905 18.3194 3.78195 18.2384 3.8912C18.5202 3.51246 18.816 3.141 19.1259 2.78411C18.3793 2.78411 17.6326 2.78411 16.886 2.78411C17.1994 3.13736 17.4917 3.51246 17.7735 3.8912C17.6925 3.78195 17.608 3.66905 17.527 3.5598C18.006 4.20439 18.4814 4.88539 18.7878 5.64287C18.735 5.51177 18.6822 5.38067 18.6293 5.25321C18.7103 5.45715 18.7808 5.66837 18.8089 5.89051C18.7913 5.74484 18.7702 5.59917 18.7526 5.4535C18.7526 5.51177 18.7561 5.5664 18.7596 5.62467C18.7632 6.04711 18.9322 6.48412 19.2245 6.78274C19.4992 7.06679 19.9501 7.28166 20.3445 7.26345C20.7531 7.24524 21.1792 7.10685 21.4645 6.78274C21.7462 6.46591 21.9329 6.06532 21.9294 5.62467C21.9188 4.63775 21.4469 3.70183 20.9397 2.89336C20.4854 2.1723 19.9677 1.49129 19.4323 0.835779C19.3337 0.71196 19.2316 0.591783 19.1259 0.475247C18.5695 -0.158416 17.4424 -0.158416 16.886 0.475247C16.5725 0.828496 16.2802 1.20359 15.9985 1.58234C15.3328 2.47092 14.7306 3.35586 14.322 4.40468C14.1459 4.8599 14.0473 5.3661 14.0896 5.85774C14.1248 6.24376 14.1741 6.6225 14.3115 6.98303C14.5016 7.48195 14.7094 7.84613 15.0334 8.26493C15.4878 8.85489 16.1429 9.25548 16.8296 9.49947C17.1713 9.61965 17.5516 9.67064 17.9109 9.6852C18.2912 9.69977 18.6892 9.64514 19.052 9.54318C20.7425 9.06247 21.9153 7.43097 21.9329 5.62831C21.9364 5.20951 21.7533 4.76522 21.468 4.47023C21.1933 4.18618 20.7425 3.97132 20.348 3.98952C19.4781 4.02594 18.7667 4.70331 18.7596 5.62467Z" fill="white"/>
</svg>
