<svg width="37" height="23" viewBox="0 0 37 23" fill="none" xmlns="http://www.w3.org/2000/svg">
<path fill-rule="evenodd" clip-rule="evenodd" d="M36.1295 3.16662C36.6291 3.42373 36.9431 3.93849 36.9431 4.50037V19.5004C36.9431 20.0623 36.6291 20.577 36.1295 20.8341C35.6299 21.0912 35.0285 21.0476 34.5713 20.721L24.0713 13.221C23.6771 12.9394 23.4431 12.4848 23.4431 12.0004C23.4431 11.5159 23.6771 11.0613 24.0713 10.7798L34.5713 3.27977C35.0285 2.95318 35.6299 2.90951 36.1295 3.16662ZM27.1492 12.0375L33.5681 16.3125V7.875L27.1492 12.0375Z" fill="white"/>
<path fill-rule="evenodd" clip-rule="evenodd" d="M5.60799 3.375C4.81558 3.375 4.17321 4.0046 4.17321 4.78125V17.7188C4.17321 18.4954 4.81558 19.125 5.60799 19.125H21.0319C21.8243 19.125 22.4667 18.4954 22.4667 17.7188V4.78125C22.4667 4.0046 21.8243 3.375 21.0319 3.375H5.60799ZM0.944946 4.21875C0.944946 1.8888 2.87207 0 5.24929 0H21.3906C23.7678 0 25.6949 1.8888 25.6949 4.21875V18.2812C25.6949 20.6112 23.7678 22.5 21.3906 22.5H5.24929C2.87207 22.5 0.944946 20.6112 0.944946 18.2812V4.21875Z" fill="white"/>
</svg>
