<svg width="36" height="36" viewBox="0 0 36 36" fill="none" xmlns="http://www.w3.org/2000/svg">
<path d="M14.3998 0H21.5998C25.4189 0 29.0816 1.55604 31.7821 4.32581C34.4826 7.09558 35.9998 10.8522 35.9998 14.7692C35.9998 18.6863 34.4826 22.4429 31.7821 25.2127C29.0816 27.9824 25.4189 29.5385 21.5998 29.5385V36C12.5998 32.3077 -0.000244141 26.7692 -0.000244141 14.7692C-0.000244141 10.8522 1.51689 7.09558 4.21742 4.32581C6.91794 1.55604 10.5806 0 14.3998 0V0ZM17.9998 25.8462H21.5998C23.018 25.8462 24.4224 25.5596 25.7327 25.003C27.0431 24.4463 28.2336 23.6304 29.2365 22.6018C30.2394 21.5732 31.0349 20.3521 31.5777 19.0082C32.1204 17.6643 32.3998 16.2239 32.3998 14.7692C32.3998 13.3146 32.1204 11.8742 31.5777 10.5303C31.0349 9.18636 30.2394 7.96525 29.2365 6.93666C28.2336 5.90808 27.0431 5.09216 25.7327 4.53549C24.4224 3.97882 23.018 3.69231 21.5998 3.69231H14.3998C11.5354 3.69231 8.7884 4.85934 6.763 6.93666C4.73761 9.01399 3.59976 11.8314 3.59976 14.7692C3.59976 21.4338 8.03136 25.7834 17.9998 30.4246V25.8462Z" fill="white"/>
</svg>
