<svg width="36" height="36" viewBox="0 0 36 36" fill="none" xmlns="http://www.w3.org/2000/svg">
<path d="M24.696 13.5539L22.1573 11.9407C22.332 12.7529 21.5078 13.6897 21.024 14.0999L6.21378 27.9292C5.07978 29.0632 5.07978 30.9022 6.21378 32.0362C7.34778 33.1702 9.18678 33.1702 10.3208 32.0362L24.15 17.2252C24.561 16.7407 25.4978 15.9172 26.3093 16.0919L24.696 13.5539ZM8.88378 30.0922C8.48253 30.0922 8.15778 29.7674 8.15778 29.3662C8.15778 28.9649 8.48253 28.6402 8.88378 28.6402C9.28503 28.6402 9.60978 28.9649 9.60978 29.3662C9.60978 29.7674 9.28503 30.0922 8.88378 30.0922Z" fill="url(#paint0_linear_174_4708)"/>
<path d="M23.7825 12.7522L6.94423 28.6259C6.20398 29.3662 6.20398 30.5654 6.94423 31.3057C7.68448 32.0459 8.88373 32.0459 9.62398 31.3057L25.5525 14.5214L23.7825 12.7522ZM8.88373 30.0922C8.48248 30.0922 8.15773 29.7674 8.15773 29.3662C8.15773 28.9649 8.48248 28.6402 8.88373 28.6402C9.28498 28.6402 9.60973 28.9649 9.60973 29.3662C9.60973 29.7674 9.28498 30.0922 8.88373 30.0922Z" fill="url(#paint1_linear_174_4708)"/>
<path d="M21.5227 20.0392L24.1507 17.2252C24.5617 16.7414 25.4984 15.9172 26.3099 16.0919L24.6967 13.5532L22.1579 11.9399C22.3327 12.7522 21.5084 13.6889 21.0247 14.0992L18.2107 16.7272L21.5227 20.0392Z" fill="url(#paint2_linear_174_4708)"/>
<path d="M33.2168 12.4957L34.4265 9.73942C34.5795 9.39142 34.503 8.98492 34.2345 8.71642L33.6263 8.10817L30.462 11.2724C29.6993 11.6309 28.5465 11.6279 27.5843 10.6657C26.622 9.70342 26.619 8.55067 26.9775 7.78792L30.1418 4.62367L29.538 4.01992C29.2695 3.75142 28.8645 3.67492 28.5165 3.82717L25.7693 5.02792C24.6338 5.44567 23.5988 6.21667 22.8578 7.38067C21.6285 9.31267 21.6675 11.8664 22.974 13.7474C25.1093 16.8217 29.3655 17.0992 31.884 14.5807C32.4945 13.9702 32.9348 13.2554 33.2168 12.4957Z" fill="url(#paint3_linear_174_4708)"/>
<path d="M34.2345 8.71642L33.6263 8.10817L33.567 8.16742C34.0568 8.81992 33.8985 9.63667 33.8243 9.80542L32.724 12.3119C32.4675 13.0027 32.067 13.6522 31.512 14.2079C29.2215 16.4984 25.3515 16.2457 23.4098 13.4504C22.2218 11.7397 22.1865 9.41767 23.304 7.66117C23.9775 6.60292 24.9188 5.90167 25.9515 5.52142L28.4498 4.42942C28.9718 4.21717 29.6378 4.39267 30.1358 4.61692L29.538 4.01992C29.2695 3.75142 28.8645 3.67492 28.5165 3.82717L25.7693 5.02792C24.6338 5.44567 23.5988 6.21667 22.8578 7.38067C21.6285 9.31267 21.6675 11.8664 22.974 13.7474C25.1093 16.8217 29.3655 17.0992 31.884 14.5807C32.4945 13.9702 32.9355 13.2554 33.2168 12.4957L34.4265 9.73942C34.5795 9.39142 34.503 8.98567 34.2345 8.71642Z" fill="url(#paint4_linear_174_4708)"/>
<path d="M27.5843 10.6657C26.622 9.70345 26.619 8.5507 26.9775 7.78795L30.1418 4.62371L29.7908 4.27271L26.5035 7.55996C26.073 8.47646 26.0768 9.86096 27.2325 11.0175C28.3883 12.1732 29.7735 12.177 30.69 11.7465L33.9773 8.45921L33.6263 8.1082L30.462 11.2725C29.6993 11.631 28.5465 11.628 27.5843 10.6657Z" fill="url(#paint5_linear_174_4708)"/>
<path d="M9.83548 31.5855C8.92873 32.4105 7.21423 32.5373 6.69373 31.029C7.42948 31.8908 8.67448 32.2328 9.69148 31.1903C10.533 30.3285 24.6457 15.4463 24.6457 15.4463C24.246 16.128 18.2197 22.9148 9.83548 31.5855Z" fill="url(#paint6_linear_174_4708)"/>
<path d="M6.4965 27.9413C5.6715 28.8481 5.4015 29.7188 5.868 30.6518C5.796 29.7001 5.84925 29.1023 6.891 28.0846C7.75275 27.2431 22.2578 13.4873 22.2578 13.4873C21.5768 13.8886 15.1673 19.5578 6.4965 27.9413Z" fill="url(#paint7_linear_174_4708)"/>
<path d="M8.81331 28.1574C8.14581 28.1964 7.63656 28.7694 7.67556 29.4369C7.71456 30.1044 8.28756 30.6136 8.95506 30.5746C9.62256 30.5356 10.1318 29.9626 10.0928 29.2951C10.0538 28.6284 9.48081 28.1184 8.81331 28.1574ZM8.88381 30.0924C8.48256 30.0924 8.15781 29.7676 8.15781 29.3664C8.15781 28.9651 8.48256 28.6404 8.88381 28.6404C9.28506 28.6404 9.60981 28.9651 9.60981 29.3664C9.60981 29.7676 9.28506 30.0924 8.88381 30.0924Z" fill="url(#paint8_linear_174_4708)"/>
<path d="M20.1893 14.8792L11.2073 23.2664L14.9835 27.0426L23.3708 18.0606L20.1893 14.8792Z" fill="url(#paint9_linear_174_4708)"/>
<path d="M8.02954 8.62207L5.60779 11.0438L16.5825 23.2298L25.9358 32.5831C26.58 33.2273 27.624 33.2273 28.2675 32.5831L29.5688 31.2818C30.213 30.6376 30.213 29.5936 29.5688 28.9501L20.2155 19.5968L8.02954 8.62207Z" fill="url(#paint10_linear_174_4708)"/>
<path d="M14.3123 14.2561L8.02954 8.62207L5.60779 11.0446L11.2418 17.3273L14.3123 14.2561Z" fill="url(#paint11_linear_174_4708)"/>
<path d="M28.5622 27.9436L24.9292 31.5766L25.9365 32.5839C26.5807 33.2281 27.6247 33.2281 28.2682 32.5839L29.5694 31.2826C30.2137 30.6384 30.2137 29.5944 29.5694 28.9509L28.5622 27.9436Z" fill="url(#paint12_linear_174_4708)"/>
<path d="M16.7257 7.41746L5.91745 18.2257C5.5882 18.555 5.05495 18.555 4.7257 18.2257L1.34545 14.8455C1.0162 14.5162 1.0162 13.983 1.34545 13.6537L8.2402 6.75896C8.32795 6.67121 8.43295 6.60446 8.54995 6.56246L15.1042 5.28821C15.4117 5.17721 15.7552 5.25371 15.9862 5.48471L16.1669 5.66546L16.7264 6.22496C17.0549 6.55496 17.0549 7.08821 16.7257 7.41746Z" fill="url(#paint13_linear_174_4708)"/>
<path d="M16.3755 6.71928L5.21928 17.8755L1.69653 14.3528L8.68353 7.36578C8.76603 7.28328 8.86353 7.21653 8.96778 7.17153C8.96778 7.17153 13.1025 6.64428 15.5828 5.92578L16.3755 6.71928Z" fill="url(#paint14_linear_174_4708)"/>
<path d="M8.92353 7.91253C9.01128 7.82478 9.11328 7.75503 9.22428 7.70703L15.5828 5.92578C13.1033 6.64428 8.96778 7.17153 8.96778 7.17153C8.86353 7.21653 8.76603 7.28328 8.68353 7.36578L1.69653 14.3528L2.09028 14.7465L8.92353 7.91253Z" fill="url(#paint15_radial_174_4708)"/>
<path d="M26.3933 5.33618C26.3933 5.33618 23.4015 6.27968 22.5878 9.36743C22.4678 7.35668 24.4305 5.44118 26.3933 5.33618Z" fill="url(#paint16_linear_174_4708)"/>
<defs>
<linearGradient id="paint0_linear_174_4708" x1="5.36328" y1="22.4137" x2="62.9295" y2="22.4137" gradientUnits="userSpaceOnUse">
<stop stop-color="#C8C8C8"/>
<stop offset="1" stop-color="#6A6A6A"/>
</linearGradient>
<linearGradient id="paint1_linear_174_4708" x1="14.8252" y1="21.5017" x2="20.2087" y2="26.7727" gradientUnits="userSpaceOnUse">
<stop stop-color="#5B5B5A"/>
<stop offset="1" stop-color="#C8C8C8"/>
</linearGradient>
<linearGradient id="paint2_linear_174_4708" x1="24.3434" y1="14.7629" x2="20.4112" y2="16.6897" gradientUnits="userSpaceOnUse">
<stop stop-color="#171714" stop-opacity="0.4"/>
<stop offset="1" stop-color="#171714" stop-opacity="0"/>
</linearGradient>
<linearGradient id="paint3_linear_174_4708" x1="25.2734" y1="5.44066" x2="31.0739" y2="15.5043" gradientUnits="userSpaceOnUse">
<stop stop-color="#C8C8C8"/>
<stop offset="1" stop-color="#6A6A6A"/>
</linearGradient>
<linearGradient id="paint4_linear_174_4708" x1="29.2245" y1="12.9884" x2="25.8308" y2="4.02967" gradientUnits="userSpaceOnUse">
<stop stop-color="#6A6A6A"/>
<stop offset="1" stop-color="#EBEBEB"/>
</linearGradient>
<linearGradient id="paint5_linear_174_4708" x1="31.038" y1="10.4047" x2="26.7293" y2="4.27495" gradientUnits="userSpaceOnUse">
<stop stop-color="#C8C8C8"/>
<stop offset="0.282" stop-color="#ADADAD"/>
<stop offset="1" stop-color="#6A6A6A"/>
</linearGradient>
<linearGradient id="paint6_linear_174_4708" x1="29.6928" y1="0.419505" x2="-0.329776" y2="49.2776" gradientUnits="userSpaceOnUse">
<stop offset="0.048" stop-color="white" stop-opacity="0"/>
<stop offset="0.922" stop-color="white" stop-opacity="0.6"/>
</linearGradient>
<linearGradient id="paint7_linear_174_4708" x1="36.859" y1="7.98269" x2="-11.7091" y2="37.807" gradientUnits="userSpaceOnUse">
<stop offset="0.048" stop-color="white" stop-opacity="0"/>
<stop offset="0.922" stop-color="white"/>
</linearGradient>
<linearGradient id="paint8_linear_174_4708" x1="8.65656" y1="29.1601" x2="10.4491" y2="30.7876" gradientUnits="userSpaceOnUse">
<stop stop-color="#5B5B5A"/>
<stop offset="1" stop-color="#C8C8C8"/>
</linearGradient>
<linearGradient id="paint9_linear_174_4708" x1="13.2675" y1="23.5244" x2="22.251" y2="18.1934" gradientUnits="userSpaceOnUse">
<stop stop-color="#5A5A5A" stop-opacity="0"/>
<stop offset="0.061" stop-color="#525252" stop-opacity="0.168"/>
<stop offset="0.239" stop-color="#3F3F3F" stop-opacity="0.658"/>
<stop offset="0.362" stop-color="#383838"/>
<stop offset="0.582" stop-color="#3F3F3F" stop-opacity="0.653"/>
<stop offset="0.894" stop-color="#515151" stop-opacity="0.159"/>
<stop offset="0.994" stop-color="#595959" stop-opacity="0"/>
</linearGradient>
<linearGradient id="paint10_linear_174_4708" x1="16.0504" y1="22.7078" x2="19.6836" y2="19.0745" gradientUnits="userSpaceOnUse">
<stop stop-color="#D3A479"/>
<stop offset="0.427" stop-color="#E2B78B"/>
<stop offset="1" stop-color="#B78159"/>
</linearGradient>
<linearGradient id="paint11_linear_174_4708" x1="9.38704" y1="12.4021" x2="11.9985" y2="15.0136" gradientUnits="userSpaceOnUse">
<stop offset="0.219" stop-color="#825B41"/>
<stop offset="1" stop-color="#754C24" stop-opacity="0"/>
</linearGradient>
<linearGradient id="paint12_linear_174_4708" x1="29.1532" y1="32.1684" x2="27.4904" y2="30.5056" gradientUnits="userSpaceOnUse">
<stop stop-color="#996E4D"/>
<stop offset="1" stop-color="#754C24" stop-opacity="0"/>
</linearGradient>
<linearGradient id="paint13_linear_174_4708" x1="13.2367" y1="14.5162" x2="1.0852" y2="3.29396" gradientUnits="userSpaceOnUse">
<stop offset="0.165" stop-color="#575757"/>
<stop offset="0.267" stop-color="#6A6A6A"/>
<stop offset="0.579" stop-color="#C8C8C8"/>
</linearGradient>
<linearGradient id="paint14_linear_174_4708" x1="11.2919" y1="12.9849" x2="3.63859" y2="4.7241" gradientUnits="userSpaceOnUse">
<stop stop-color="#6A6A6A"/>
<stop offset="1" stop-color="#C8C8C8"/>
</linearGradient>
<radialGradient id="paint15_radial_174_4708" cx="0" cy="0" r="1" gradientUnits="userSpaceOnUse" gradientTransform="translate(8.20803 7.89453) scale(3.672)">
<stop stop-color="white"/>
<stop offset="1" stop-color="#CDCDCD"/>
</radialGradient>
<linearGradient id="paint16_linear_174_4708" x1="26.0074" y1="9.05335" x2="23.8376" y2="6.61619" gradientUnits="userSpaceOnUse">
<stop offset="0.048" stop-color="white" stop-opacity="0"/>
<stop offset="0.657" stop-color="white" stop-opacity="0.329"/>
<stop offset="0.994" stop-color="white" stop-opacity="0.5"/>
</linearGradient>
</defs>
</svg>
