<svg width="36" height="36" viewBox="0 0 36 36" fill="none" xmlns="http://www.w3.org/2000/svg">
<path d="M9.51602 20.3166C9.68303 20.1493 9.8814 20.0166 10.0998 19.926C10.3181 19.8354 10.5522 19.7888 10.7886 19.7888C11.025 19.7888 11.2591 19.8354 11.4775 19.926C11.6958 20.0166 11.8942 20.1493 12.0612 20.3166L14.9304 23.1858C16.2606 22.7898 18.7428 21.8898 20.316 20.3166C21.8892 18.7434 22.7892 16.2612 23.1852 14.931L20.316 12.0618C20.1487 11.8948 20.016 11.6964 19.9254 11.478C19.8349 11.2597 19.7883 11.0256 19.7883 10.7892C19.7883 10.5528 19.8349 10.3187 19.9254 10.1004C20.016 9.88199 20.1487 9.68362 20.316 9.5166L27.516 2.3166C27.683 2.1493 27.8814 2.01657 28.0998 1.92601C28.3181 1.83545 28.5522 1.78884 28.7886 1.78884C29.025 1.78884 29.2591 1.83545 29.4775 1.92601C29.6958 2.01657 29.8942 2.1493 30.0612 2.3166L35.4612 7.7166C35.7746 8.02832 35.9613 8.44521 35.985 8.8866C36.012 9.3366 36.5286 19.9962 28.2612 28.2636C21.0828 35.4402 12.0792 36 9.49082 36C9.09662 36 8.88422 35.9856 8.88422 35.9856C8.44682 35.9586 8.02382 35.7732 7.71602 35.4618L2.31602 30.0618C2.14872 29.8948 2.01599 29.6964 1.92543 29.478C1.83487 29.2597 1.78826 29.0256 1.78826 28.7892C1.78826 28.5528 1.83487 28.3187 1.92543 28.1004C2.01599 27.882 2.14872 27.6836 2.31602 27.5166L9.51602 20.3166V20.3166ZM9.74282 32.3982C12.2646 32.3604 19.7292 31.7016 25.716 25.7166C31.7316 19.6992 32.349 11.997 32.394 9.7398L28.7886 6.1344L24.1338 10.7892L26.4612 13.1166C26.6728 13.328 26.8283 13.5888 26.9138 13.8754C26.9993 14.162 27.012 14.4654 26.9508 14.7582C26.9076 14.9652 25.851 19.8738 22.863 22.8618C19.875 25.8498 14.9664 26.9064 14.7594 26.9496C14.4668 27.0119 14.1633 26.9998 13.8765 26.9146C13.5898 26.8294 13.3289 26.6737 13.1178 26.4618L10.7904 24.1344L6.13562 28.7892L9.74282 32.3982V32.3982ZM3.59942 16.1982H-0.000582695C-0.000582695 6.9642 6.97082 0 16.2174 0V3.6C8.90582 3.6 3.59942 8.8974 3.59942 16.1982V16.1982Z" fill="white"/>
<path d="M16.2 10.8C12.4146 10.8 10.8 12.4146 10.8 16.2H7.19995C7.19995 10.395 10.395 7.19995 16.2 7.19995V10.8Z" fill="white"/>
</svg>
