<svg width="36" height="36" viewBox="0 0 36 36" fill="none" xmlns="http://www.w3.org/2000/svg">
<path d="M32.3999 25.7143H35.9999V29.1429H-0.00012207V25.7143H3.59988V13.7143C3.59988 10.077 5.11702 6.58875 7.81754 4.01682C10.5181 1.44489 14.1808 0 17.9999 0C21.819 0 25.4817 1.44489 28.1822 4.01682C30.8827 6.58875 32.3999 10.077 32.3999 13.7143V25.7143ZM28.7999 25.7143V13.7143C28.7999 10.9863 27.662 8.37013 25.6366 6.44119C23.6112 4.51224 20.8642 3.42857 17.9999 3.42857C15.1355 3.42857 12.3885 4.51224 10.3631 6.44119C8.33773 8.37013 7.19988 10.9863 7.19988 13.7143V25.7143H28.7999ZM12.5999 32.5714H23.3999V36H12.5999V32.5714Z" fill="white"/>
</svg>
