<svg width="36" height="36" viewBox="0 0 36 36" fill="none" xmlns="http://www.w3.org/2000/svg">
<path d="M20.25 25.5H15.75V36H20.25V25.5Z" fill="url(#paint0_linear_174_4726)"/>
<path d="M17.25 14.5501V28.5001H4.0305C3.75719 28.5001 3.49508 28.3915 3.30183 28.1982C3.10857 28.005 3 27.7429 3 27.4696V14.5501C3.00122 13.3236 3.32351 12.1188 3.93483 11.0555C4.54614 9.99218 5.42517 9.10747 6.4845 8.48931C7.84694 7.68657 9.4365 7.35666 11.0059 7.5509C12.5752 7.74514 14.0364 8.45263 15.162 9.56331C15.3292 9.72831 15.4808 9.89406 15.633 10.0741C16.6801 11.3304 17.2524 12.9146 17.25 14.5501Z" fill="url(#paint1_linear_174_4726)"/>
<path d="M17.3955 14.9099V21.5174C17.343 21.5624 17.283 21.5999 17.2305 21.6449C16.6981 22.057 16.0438 22.2806 15.3705 22.2806C14.6972 22.2806 14.043 22.057 13.5105 21.6449C13.368 21.5324 13.218 21.4199 13.0755 21.3149C11.0055 19.7249 8.93304 18.1374 6.85804 16.5524V16.1699C6.85775 16.0844 6.86528 15.999 6.88054 15.9149C6.93409 15.6334 7.08381 15.3792 7.30408 15.1959C7.52434 15.0126 7.80147 14.9115 8.08804 14.9099H17.3955Z" fill="url(#paint2_linear_174_4726)"/>
<path d="M17.3955 21.5175V27.75H8.08803C7.88576 27.7511 7.6867 27.6994 7.51053 27.6C7.47303 27.585 7.44303 27.5625 7.40553 27.5475V27.54H7.39803C7.364 27.5144 7.33144 27.4868 7.30053 27.4575C7.27192 27.4364 7.24664 27.4111 7.22553 27.3825C7.19369 27.3517 7.16364 27.3192 7.13553 27.285C6.95606 27.0617 6.85816 26.7839 6.85803 26.4975V16.5525C8.92803 18.1425 11.0005 19.73 13.0755 21.315C13.218 21.42 13.368 21.5325 13.5105 21.645C14.043 22.0571 14.6972 22.2807 15.3705 22.2807C16.0438 22.2807 16.6981 22.0571 17.2305 21.645C17.283 21.6 17.343 21.5625 17.3955 21.5175Z" fill="#C1C1C1"/>
<path d="M18.561 20.631V21.8018C16.4917 23.3895 19.7362 20.8973 17.6662 22.485C17.5162 22.5945 17.373 22.71 17.226 22.821C16.6939 23.231 16.0411 23.4533 15.3694 23.4533C14.6977 23.4533 14.0448 23.231 13.5127 22.821C13.3627 22.7078 13.2187 22.596 13.0717 22.485C11.0027 20.895 8.932 19.307 6.8595 17.721V16.551C8.9285 18.1385 10.9992 19.7265 13.0717 21.315C13.2217 21.4238 13.3657 21.54 13.5127 21.6503C14.0448 22.0602 14.6977 22.2826 15.3694 22.2826C16.0411 22.2826 16.6939 22.0602 17.226 21.6503C17.376 21.537 17.52 21.4253 17.6662 21.315C19.7362 19.725 16.4917 22.2188 18.561 20.631Z" fill="#A5A5A5"/>
<path d="M18.561 20.7548V21.9248C16.4917 23.5133 19.7482 21.0368 17.6662 22.6088C17.5207 22.7191 17.373 22.8338 17.226 22.9441C16.6939 23.354 16.0411 23.5764 15.3694 23.5764C14.6977 23.5764 14.0448 23.354 13.5127 22.9441C13.3627 22.8308 13.2172 22.7191 13.0717 22.6088C10.9897 21.0338 8.92875 19.4326 6.8595 17.8448V16.6741C8.92875 18.2626 10.9897 19.8661 13.0717 21.4381C13.2172 21.5483 13.3657 21.6631 13.5127 21.7741C14.045 22.1837 14.6978 22.4058 15.3694 22.4058C16.041 22.4058 16.6937 22.1837 17.226 21.7741C17.376 21.6608 17.5207 21.5491 17.6662 21.4381C19.7482 19.8661 16.4917 22.3426 18.561 20.7548Z" fill="#A8A8A8"/>
<path d="M18.561 20.8778V22.05C16.4917 23.6378 19.7482 21.1613 17.6662 22.7333C17.5207 22.8443 17.373 22.9583 17.226 23.0693C16.6937 23.4789 16.041 23.701 15.3694 23.701C14.6978 23.701 14.045 23.4789 13.5127 23.0693C13.3627 22.956 13.2172 22.8443 13.0717 22.7333C10.9897 21.1583 8.92875 19.5578 6.8595 17.9693V16.8C8.92875 18.3878 10.9897 19.992 13.0717 21.564C13.2172 21.6743 13.3657 21.789 13.5127 21.8993C14.0448 22.3093 14.6977 22.5316 15.3694 22.5316C16.0411 22.5316 16.6939 22.3093 17.226 21.8993C17.376 21.786 17.5207 21.6743 17.6662 21.564C19.7482 19.9898 16.4917 22.4655 18.561 20.8778Z" fill="#ABABAB"/>
<path d="M18.561 20.9999V22.1707C16.4917 23.7584 19.7482 21.2827 17.6662 22.8547C17.5207 22.9649 17.373 23.0797 17.226 23.1899C16.6939 23.5999 16.0411 23.8222 15.3694 23.8222C14.6977 23.8222 14.0448 23.5999 13.5127 23.1899C13.3627 23.0767 13.2172 22.9649 13.0717 22.8547C10.9897 21.2797 8.92875 19.6784 6.8595 18.0907V16.9207C8.92875 18.5084 10.9897 20.1127 13.0717 21.6847C13.2172 21.7949 13.3657 21.9097 13.5127 22.0199C14.0448 22.4299 14.6977 22.6522 15.3694 22.6522C16.0411 22.6522 16.6939 22.4299 17.226 22.0199L17.6662 21.6847C19.7482 20.1127 16.4917 22.5892 18.561 20.9999Z" fill="#AEAEAE"/>
<path d="M18.561 21.1244V22.2952C16.4917 23.8829 19.7482 21.4064 17.6662 22.9784C17.5207 23.0887 17.373 23.2034 17.226 23.3144C16.6937 23.724 16.041 23.9461 15.3694 23.9461C14.6978 23.9461 14.045 23.724 13.5127 23.3144C13.3627 23.2012 13.2172 23.0894 13.0717 22.9784C10.9897 21.4034 8.92875 19.8029 6.8595 18.2144V17.0444C8.92875 18.6322 10.9897 20.2357 13.0717 21.8084C13.2172 21.9187 13.3657 22.0334 13.5127 22.1437C14.0448 22.5536 14.6977 22.776 15.3694 22.776C16.0411 22.776 16.6939 22.5536 17.226 22.1437C17.376 22.0304 17.5207 21.9187 17.6662 21.8084C19.7482 20.2364 16.4917 22.7122 18.561 21.1244Z" fill="#B1B1B1"/>
<path d="M18.561 21.2475V22.4182C16.4917 24.006 19.7482 21.5302 17.6662 23.1022C17.5207 23.2125 17.373 23.3272 17.226 23.4375C16.6939 23.8474 16.0411 24.0698 15.3694 24.0698C14.6977 24.0698 14.0448 23.8474 13.5127 23.4375C13.3627 23.3242 13.2172 23.2125 13.0717 23.1022C10.9897 21.5272 8.92875 19.926 6.8595 18.3382V17.1675C8.92875 18.7552 10.9897 20.3595 13.0717 21.9315C13.2172 22.0417 13.3657 22.1565 13.5127 22.2667C14.0448 22.6767 14.6977 22.899 15.3694 22.899C16.0411 22.899 16.6939 22.6767 17.226 22.2667L17.6662 21.9315C19.7482 20.3595 16.4917 22.836 18.561 21.2475Z" fill="#B4B4B4"/>
<path d="M18.561 21.375V22.5458C16.4917 24.1335 19.7482 21.657 17.6662 23.229C17.5207 23.3393 17.373 23.454 17.226 23.565C16.6937 23.9746 16.041 24.1967 15.3694 24.1967C14.6978 24.1967 14.045 23.9746 13.5127 23.565C13.3627 23.4518 13.2172 23.34 13.0717 23.229C10.9897 21.654 8.92875 20.0528 6.8595 18.465V17.2905C8.92875 18.879 10.9897 20.4825 13.0717 22.0545C13.2172 22.1655 13.3657 22.2795 13.5127 22.3905C14.0448 22.8005 14.6977 23.0228 15.3694 23.0228C16.0411 23.0228 16.6939 22.8005 17.226 22.3905C17.376 22.2773 17.5207 22.1655 17.6662 22.0545C19.7482 20.4833 16.4917 22.959 18.561 21.375Z" fill="#B8B8B8"/>
<path d="M18.561 21.4943V22.6651C16.4917 24.2528 19.7482 21.7771 17.6662 23.3491C17.5207 23.4593 17.373 23.5741 17.226 23.6843C16.6939 24.0943 16.0411 24.3166 15.3694 24.3166C14.6977 24.3166 14.0448 24.0943 13.5127 23.6843C13.3627 23.5711 13.2172 23.4593 13.0717 23.3491C10.9897 21.7741 8.92875 20.1728 6.8595 18.5851V17.4143C8.92875 19.0021 10.9897 20.6063 13.0717 22.1783C13.2172 22.2886 13.3657 22.4033 13.5127 22.5136C14.0448 22.9235 14.6977 23.1458 15.3694 23.1458C16.0411 23.1458 16.6939 22.9235 17.226 22.5136C17.376 22.4003 17.5207 22.2886 17.6662 22.1783C19.7482 20.6063 16.4917 23.0828 18.561 21.4943Z" fill="#BABABA"/>
<path d="M18.561 21.6181V22.7881C16.4917 24.3766 19.7482 21.9001 17.6662 23.4721L17.226 23.8074C16.6939 24.2173 16.0411 24.4396 15.3694 24.4396C14.6977 24.4396 14.0448 24.2173 13.5127 23.8074C13.3627 23.6949 13.2172 23.5824 13.0717 23.4721C10.9897 21.8971 8.92875 20.2959 6.8595 18.7081V17.5374C8.92875 19.1259 10.9897 20.7294 13.0717 22.3014C13.2172 22.4124 13.3657 22.5264 13.5127 22.6374C14.045 23.047 14.6978 23.2691 15.3694 23.2691C16.041 23.2691 16.6937 23.047 17.226 22.6374C17.376 22.5241 17.5207 22.4124 17.6662 22.3014C19.7482 20.7294 16.4917 23.2059 18.561 21.6181Z" fill="#BEBEBE"/>
<path d="M18.561 21.7409V22.9116C16.4917 24.4994 19.7362 22.0071 17.6662 23.5956C17.5162 23.7044 17.373 23.8206 17.226 23.9309C16.6939 24.3409 16.0411 24.5632 15.3694 24.5632C14.6977 24.5632 14.0448 24.3409 13.5127 23.9309C13.3627 23.8176 13.2187 23.7059 13.0717 23.5956C11.0027 22.0071 8.932 20.4191 6.8595 18.8316V17.6609C8.9285 19.2489 10.9992 20.8369 13.0717 22.4249C13.2217 22.5336 13.3657 22.6499 13.5127 22.7601C14.0448 23.1701 14.6977 23.3924 15.3694 23.3924C16.0411 23.3924 16.6939 23.1701 17.226 22.7601C17.376 22.6469 17.5192 22.5351 17.6662 22.4249C19.7362 20.8364 16.4917 23.3294 18.561 21.7409Z" fill="#C1C1C1"/>
<path d="M17.3955 21.5174V27.7499H8.08803C7.88576 27.751 7.6867 27.6993 7.51053 27.5999C7.47303 27.5849 7.44303 27.5624 7.40553 27.5474C7.40553 27.5399 7.40553 27.5399 7.39803 27.5399C7.364 27.5143 7.33144 27.4868 7.30053 27.4574C7.27192 27.4363 7.24664 27.411 7.22553 27.3824C7.19369 27.3517 7.16364 27.3191 7.13553 27.2849C6.95606 27.0617 6.85816 26.7839 6.85803 26.4974V26.0699L12.3105 21.8999C12.5655 21.7049 12.813 21.5099 13.0755 21.3149C13.218 21.4199 13.368 21.5324 13.5105 21.6449C14.043 22.057 14.6972 22.2806 15.3705 22.2806C16.0438 22.2806 16.6981 22.057 17.2305 21.6449C17.283 21.5999 17.343 21.5624 17.3955 21.5174Z" fill="url(#paint3_linear_174_4726)"/>
<path d="M18.4282 21.8999C18.1732 22.0949 17.9219 22.2899 17.6662 22.4849C17.5162 22.5944 17.3729 22.7099 17.2259 22.8209C16.6938 23.2309 16.041 23.4532 15.3693 23.4532C14.6976 23.4532 14.0448 23.2309 13.5127 22.8209C13.3627 22.7077 13.2187 22.5959 13.0717 22.4849C12.8159 22.2899 12.5647 22.0949 12.3097 21.8999C12.5647 21.7049 12.8159 21.5099 13.0717 21.3149C13.2217 21.4237 13.3657 21.5399 13.5127 21.6502C14.0448 22.0602 14.6976 22.2825 15.3693 22.2825C16.041 22.2825 16.6938 22.0602 17.2259 21.6502C17.3759 21.5369 17.5199 21.4252 17.6662 21.3149L18.4282 21.8999Z" fill="#C1C1C1"/>
<path d="M12.2474 21.9473C12.4154 21.819 12.5737 21.6795 12.7492 21.5625C12.8354 21.504 12.9292 21.4575 13.0199 21.4058C13.1699 21.516 13.3154 21.6308 13.4632 21.7433C13.5977 21.8461 13.7393 21.9393 13.8869 22.0223C14.3298 22.2709 14.828 22.4045 15.3359 22.4108C15.4237 22.4108 15.5107 22.4108 15.5984 22.4025C16.19 22.3584 16.7557 22.1423 17.2259 21.7808C17.3594 21.6773 17.4937 21.5738 17.6279 21.474L17.6722 21.441C17.6984 21.4208 18.3052 21.846 18.3322 21.8258L18.4432 21.9113L18.2182 22.1528C18.0449 22.2885 17.8634 22.4333 17.6699 22.5795C17.5199 22.6913 17.3699 22.8045 17.2297 22.9155C16.6976 23.3255 16.0448 23.5478 15.3731 23.5478C14.7014 23.5478 14.0485 23.3255 13.5164 22.9155C13.3664 22.8023 13.2217 22.6905 13.0754 22.5795C12.7942 22.371 12.5249 22.158 12.2474 21.9473Z" fill="#C5C5C5"/>
<path d="M12.1859 21.9943C12.3462 21.8531 12.5158 21.7228 12.6937 21.6043C12.7827 21.5618 12.8747 21.5257 12.9689 21.4963C13.1189 21.6073 13.2689 21.7213 13.4144 21.8361C13.5506 21.9398 13.6928 22.0352 13.8404 22.1218C14.2844 22.3832 14.7878 22.5268 15.3029 22.5388C15.3922 22.5388 15.4807 22.5388 15.5692 22.5336C16.171 22.4948 16.7477 22.2779 17.2259 21.9103C17.3609 21.8061 17.4967 21.7011 17.6324 21.5998L17.6774 21.5668C17.7299 21.5263 18.2909 21.8758 18.3442 21.8346L18.4582 21.9223L18.2572 22.2081C18.0802 22.3498 17.8822 22.5081 17.6662 22.6738C17.5162 22.7871 17.3579 22.9078 17.2259 23.0098C16.6938 23.4198 16.041 23.6421 15.3693 23.6421C14.6976 23.6421 14.0448 23.4198 13.5127 23.0098C13.3627 22.8966 13.2179 22.7848 13.0717 22.6738C12.7732 22.4496 12.4822 22.2208 12.1859 21.9943Z" fill="#C8C8C8"/>
<path d="M12.1237 22.0417C12.2962 21.9104 12.4672 21.7777 12.6389 21.6464L12.9179 21.5864C13.0679 21.6989 13.2179 21.8114 13.3679 21.9284C13.5053 22.0335 13.648 22.1313 13.7954 22.2217C14.2408 22.4956 14.7496 22.6494 15.2722 22.6679C15.3622 22.6679 15.4529 22.6679 15.5429 22.6679C16.1549 22.6351 16.7426 22.4172 17.2282 22.0432C17.3654 21.9374 17.5027 21.8324 17.6399 21.7297L17.6849 21.6959C17.7644 21.6344 18.2782 21.9082 18.3599 21.8459L18.4762 21.9352L18.3044 22.2644C18.1222 22.4144 17.9099 22.5869 17.6699 22.7699C17.5199 22.8839 17.3549 23.0092 17.2297 23.1059C16.6976 23.5159 16.0447 23.7382 15.373 23.7382C14.7013 23.7382 14.0485 23.5159 13.5164 23.1059C13.3664 22.9927 13.2217 22.8809 13.0754 22.7699C12.7499 22.5292 12.4409 22.2839 12.1237 22.0417Z" fill="#CCCCCC"/>
<path d="M12.0621 22.089L12.5871 21.6892L12.8691 21.6772C13.0191 21.7905 13.1691 21.9022 13.3191 22.0215C13.4691 22.1407 13.6034 22.2285 13.7496 22.3215C14.196 22.6081 14.71 22.7719 15.2399 22.7962C15.3314 22.8007 15.4236 22.8007 15.5151 22.7962C16.1371 22.769 16.7356 22.5506 17.2289 22.1707C17.3676 22.0635 17.5064 21.957 17.6451 21.8535L17.6909 21.819C17.7974 21.7372 18.2646 21.9352 18.3711 21.8535L18.4904 21.945C18.4404 22.0695 18.3926 22.1945 18.3471 22.32C18.1596 22.4745 17.9331 22.6627 17.6721 22.8645C17.5221 22.98 17.3496 23.1097 17.2319 23.2005C16.6998 23.6105 16.047 23.8328 15.3753 23.8328C14.7035 23.8328 14.0507 23.6105 13.5186 23.2005C13.3686 23.0872 13.2239 22.9755 13.0776 22.8645C12.7319 22.608 12.3996 22.35 12.0621 22.089Z" fill="#CFCFCF"/>
<path d="M12 22.1362C12.177 22.002 12.3532 21.8655 12.5295 21.7312L12.8152 21.768C12.9652 21.882 13.1153 21.9982 13.2653 22.1145C13.4153 22.2307 13.551 22.3237 13.6973 22.4212C14.145 22.7199 14.6644 22.8937 15.2017 22.9245C15.2947 22.9297 15.3885 22.9312 15.4815 22.9245C16.1135 22.9025 16.7227 22.6832 17.2238 22.2975C17.364 22.1895 17.505 22.0815 17.6453 21.9765L17.691 21.942C17.8237 21.84 18.2452 21.9615 18.378 21.8602L18.5002 21.9532L18.3855 22.3702C18.1935 22.5315 17.9513 22.734 17.664 22.9545C17.514 23.0707 17.3348 23.205 17.2238 23.2905C16.6917 23.7004 16.0388 23.9227 15.3671 23.9227C14.6954 23.9227 14.0426 23.7004 13.5105 23.2905C13.3605 23.1772 13.2158 23.0655 13.0695 22.9545C12.7118 22.6867 12.3585 22.4092 12 22.1362Z" fill="#D2D2D2"/>
<path d="M11.9385 22.1834C12.117 22.0477 12.2955 21.9089 12.474 21.7732L12.7642 21.8587L13.2187 22.2067C13.3612 22.3139 13.5067 22.4197 13.653 22.5217C14.1018 22.8324 14.6263 23.0159 15.171 23.0527C15.2655 23.0594 15.36 23.0617 15.4552 23.0594C16.097 23.0423 16.7169 22.8222 17.226 22.4309C17.3677 22.3214 17.5102 22.2127 17.652 22.1062L17.6985 22.0702C17.8582 21.9487 18.2325 21.9952 18.3922 21.8722L18.5167 21.9667L18.4312 22.4287C18.234 22.5952 17.976 22.8127 17.6662 23.0527C17.5162 23.1697 17.3295 23.3077 17.226 23.3879C16.6939 23.7979 16.0411 24.0202 15.3694 24.0202C14.6976 24.0202 14.0448 23.7979 13.5127 23.3879C13.3627 23.2747 13.218 23.1629 13.0717 23.0527C12.6907 22.7654 12.3172 22.4722 11.9385 22.1834Z" fill="#D5D5D5"/>
<path d="M11.8762 22.2307C12.0577 22.0934 12.2385 21.9532 12.4192 21.8159L12.7125 21.9494L13.1692 22.2997C13.314 22.4077 13.4595 22.5157 13.6065 22.6214C14.0563 22.9445 14.5859 23.1382 15.138 23.1817C15.234 23.1892 15.33 23.1922 15.426 23.1907C16.078 23.179 16.709 22.9581 17.226 22.5607C17.3692 22.4497 17.514 22.3402 17.6572 22.2322L17.7037 22.1962C17.8897 22.0544 18.2182 22.0237 18.4042 21.8812L18.5317 21.9779C18.5122 22.1469 18.4932 22.3154 18.4747 22.4834C18.2722 22.6567 17.9992 22.8877 17.6662 23.1472C17.5162 23.2649 17.3227 23.4082 17.226 23.4824C16.6939 23.8924 16.0411 24.1147 15.3693 24.1147C14.6976 24.1147 14.0448 23.8924 13.5127 23.4824C13.3627 23.3692 13.218 23.2574 13.0717 23.1472C12.6697 22.8449 12.276 22.5352 11.8762 22.2307Z" fill="#D9D9D9"/>
<path d="M11.8147 22.275C11.9977 22.1362 12.1807 21.9937 12.3644 21.855L12.6644 22.0372L13.1234 22.3897L13.5622 22.7182C14.0131 23.0537 14.5482 23.2575 15.1079 23.307C15.2054 23.3152 15.3029 23.3197 15.4004 23.319C16.0624 23.3129 16.7043 23.0912 17.2289 22.6875C17.3737 22.5757 17.5199 22.4625 17.6647 22.356L17.7127 22.3192C17.9249 22.1572 18.2069 22.05 18.4192 21.888L18.5497 21.9862L18.5204 22.536C18.3142 22.7152 18.0254 22.9605 17.6692 23.2387C17.5192 23.358 17.3182 23.505 17.2289 23.574C16.6969 23.9839 16.044 24.2063 15.3723 24.2063C14.7006 24.2063 14.0478 23.9839 13.5157 23.574C13.3657 23.4607 13.2209 23.349 13.0747 23.2387C12.6494 22.9237 12.2347 22.5982 11.8147 22.275Z" fill="#DCDCDC"/>
<path d="M18.5609 22.5937C18.3494 22.7797 18.0457 23.0392 17.6662 23.3362C17.5162 23.4562 17.3084 23.6077 17.2259 23.6714C16.6938 24.0814 16.041 24.3037 15.3693 24.3037C14.6976 24.3037 14.0448 24.0814 13.5127 23.6714C13.3627 23.5582 13.2187 23.4464 13.0717 23.3362C12.6307 23.0002 12.1934 22.6612 11.7524 22.3252C11.9384 22.1849 12.1237 22.0402 12.3097 21.8999C12.5647 22.0949 12.8159 22.2899 13.0717 22.4849C13.2217 22.5944 13.3657 22.7099 13.5127 22.8209C14.0448 23.2309 14.6976 23.4532 15.3693 23.4532C16.041 23.4532 16.6938 23.2309 17.2259 22.8209C17.3759 22.7077 17.5192 22.5959 17.6662 22.4849C17.9219 22.2899 18.1732 22.0949 18.4282 21.8999L18.5609 22.0004V22.5937Z" fill="#E0E0E0"/>
<path d="M11.7524 22.3252C11.9384 22.1849 12.1237 22.0402 12.3097 21.8999C12.5647 22.0949 12.8159 22.2899 13.0717 22.4849C13.2217 22.5944 13.3657 22.7099 13.5127 22.8209C14.0448 23.2309 14.6976 23.4532 15.3693 23.4532C16.041 23.4532 16.6938 23.2309 17.2259 22.8209C17.3759 22.7077 17.5199 22.5959 17.6662 22.4849C17.9234 22.2922 18.1732 22.0949 18.4282 21.8999L18.5609 22.0004C18.5609 22.0672 18.5609 22.1339 18.5609 22.2014V22.4467C18.5609 22.4947 18.5609 22.5464 18.5609 22.5967C18.2759 22.8601 17.9754 23.1063 17.6609 23.3339L17.2207 23.6692C16.6886 24.0791 16.0358 24.3014 15.3641 24.3014C14.6924 24.3014 14.0395 24.0791 13.5074 23.6692C13.3574 23.5559 13.2127 23.4442 13.0664 23.3339C12.6284 23.0024 12.1934 22.6612 11.7524 22.3252Z" fill="#E0E0E0"/>
<path d="M11.7524 22.3252C11.9384 22.1849 12.1237 22.0402 12.3097 21.8999C12.5647 22.0949 12.8159 22.2899 13.0717 22.4849C13.2217 22.5944 13.3657 22.7099 13.5127 22.8209C14.0448 23.2309 14.6976 23.4532 15.3693 23.4532C16.041 23.4532 16.6938 23.2309 17.2259 22.8209C17.3759 22.7077 17.5199 22.5959 17.6662 22.4849C17.9234 22.2922 18.1732 22.0949 18.4282 21.8999L18.5609 22.0004C18.5609 22.0679 18.5609 22.1347 18.5609 22.2029C18.5609 22.2859 18.5609 22.3684 18.5609 22.4504C18.5609 22.4962 18.5647 22.5487 18.5609 22.6004C18.2842 22.8719 17.9829 23.1172 17.6609 23.3332C17.4892 23.4614 17.3144 23.5964 17.2207 23.6684C16.6886 24.0784 16.0358 24.3007 15.3641 24.3007C14.6924 24.3007 14.0395 24.0784 13.5074 23.6684C13.3574 23.5552 13.2127 23.4434 13.0664 23.3332C12.6284 23.0024 12.1934 22.6612 11.7524 22.3252Z" fill="#E0E0E0"/>
<path d="M11.7524 22.3252C11.9384 22.1849 12.1237 22.0402 12.3097 21.8999C12.5647 22.0949 12.8159 22.2899 13.0717 22.4849C13.2217 22.5944 13.3657 22.7099 13.5127 22.8209C14.0448 23.2309 14.6976 23.4532 15.3693 23.4532C16.041 23.4532 16.6938 23.2309 17.2259 22.8209C17.3759 22.7077 17.5199 22.5959 17.6662 22.4849C17.9234 22.2922 18.1732 22.0949 18.4282 21.8999L18.5617 22.0012C18.5617 22.0679 18.5617 22.1362 18.5654 22.2052C18.5654 22.2892 18.5654 22.3724 18.5654 22.4542C18.5687 22.5041 18.5687 22.5542 18.5654 22.6042C18.2969 22.8834 17.9946 23.1281 17.6654 23.3324C17.4847 23.4644 17.3249 23.5912 17.2252 23.6677C16.6931 24.0776 16.0403 24.2999 15.3686 24.2999C14.6969 24.2999 14.044 24.0776 13.5119 23.6677C13.3619 23.5544 13.2172 23.4427 13.0709 23.3324C12.6284 23.0024 12.1934 22.6612 11.7524 22.3252Z" fill="#E0E0E0"/>
<path d="M11.7524 22.3252C11.9384 22.1849 12.1237 22.0402 12.3097 21.8999C12.5647 22.0949 12.8159 22.2899 13.0717 22.4849C13.2217 22.5944 13.3657 22.7099 13.5127 22.8209C14.0448 23.2309 14.6976 23.4532 15.3693 23.4532C16.041 23.4532 16.6938 23.2309 17.2259 22.8209C17.3759 22.7077 17.5199 22.5959 17.6662 22.4849C17.9234 22.2922 18.1732 22.0949 18.4282 21.8999L18.5617 22.0012C18.5617 22.0679 18.5654 22.1369 18.5669 22.2067C18.5669 22.2922 18.5669 22.3762 18.5669 22.4579C18.5712 22.5096 18.5712 22.5615 18.5669 22.6132C18.3062 22.8993 18.0026 23.1432 17.6669 23.3362C17.4772 23.4719 17.3317 23.5904 17.2267 23.6714C16.6946 24.0814 16.0418 24.3037 15.3701 24.3037C14.6984 24.3037 14.0455 24.0814 13.5134 23.6714C13.3634 23.5582 13.2187 23.4464 13.0724 23.3362C12.6284 23.0024 12.1934 22.6612 11.7524 22.3252Z" fill="#E0E0E0"/>
<path d="M11.7524 22.3252C11.9384 22.1849 12.1237 22.0402 12.3097 21.8999C12.5647 22.0949 12.8159 22.2899 13.0717 22.4849C13.2217 22.5944 13.3657 22.7099 13.5127 22.8209C14.0448 23.2309 14.6976 23.4532 15.3693 23.4532C16.041 23.4532 16.6938 23.2309 17.2259 22.8209C17.3759 22.7077 17.5199 22.5959 17.6662 22.4849C17.9234 22.2922 18.1732 22.0949 18.4282 21.8999L18.5617 22.0012C18.5647 22.0687 18.5669 22.1377 18.5684 22.2082C18.5684 22.2952 18.5684 22.3799 18.5684 22.4617C18.5743 22.5135 18.5743 22.5658 18.5684 22.6177C18.4454 22.8562 18.1042 23.0242 17.6639 23.3362C17.4644 23.4757 17.3347 23.5859 17.2237 23.6714C16.6916 24.0814 16.0388 24.3037 15.3671 24.3037C14.6954 24.3037 14.0425 24.0814 13.5104 23.6714C13.3604 23.5582 13.2157 23.4464 13.0694 23.3362C12.6284 23.0024 12.1934 22.6612 11.7524 22.3252Z" fill="#E0E0E0"/>
<path d="M11.7524 22.3252C11.9384 22.1849 12.1237 22.0402 12.3097 21.8999C12.5647 22.0949 12.8159 22.2899 13.0717 22.4849C13.2217 22.5944 13.3657 22.7099 13.5127 22.8209C14.0448 23.2309 14.6976 23.4532 15.3693 23.4532C16.041 23.4532 16.6938 23.2309 17.2259 22.8209C17.3759 22.7077 17.5199 22.5959 17.6662 22.4849C17.9234 22.2922 18.1732 22.0949 18.4282 21.8999L18.5617 22.0012C18.5654 22.0687 18.5677 22.1384 18.5692 22.2097C18.5692 22.2982 18.5692 22.3829 18.5692 22.4654C18.576 22.5174 18.576 22.5701 18.5692 22.6222C18.4634 22.8719 18.1154 23.0212 17.6624 23.3362C17.4539 23.4802 17.3384 23.5814 17.2222 23.6714C16.6901 24.0814 16.0373 24.3037 15.3656 24.3037C14.6939 24.3037 14.041 24.0814 13.5089 23.6714C13.3589 23.5582 13.2142 23.4464 13.0679 23.3362C12.6284 23.0024 12.1934 22.6612 11.7524 22.3252Z" fill="#E0E0E0"/>
<path d="M11.7524 22.3252C11.9384 22.1849 12.1237 22.0402 12.3097 21.8999C12.5647 22.0949 12.8159 22.2899 13.0717 22.4849C13.2217 22.5944 13.3657 22.7099 13.5127 22.8209C14.0448 23.2309 14.6976 23.4532 15.3693 23.4532C16.041 23.4532 16.6938 23.2309 17.2259 22.8209C17.3759 22.7077 17.5199 22.5959 17.6662 22.4849C17.9234 22.2922 18.1732 22.0949 18.4282 21.8999L18.5617 22.0012C18.5662 22.0687 18.5692 22.1392 18.5707 22.2119C18.5707 22.3004 18.5707 22.3867 18.5707 22.4692C18.5792 22.5216 18.5792 22.575 18.5707 22.6274C18.4829 22.8869 18.1274 23.0189 17.6624 23.3362C17.4449 23.4862 17.3444 23.5777 17.2222 23.6714C16.6901 24.0814 16.0373 24.3037 15.3656 24.3037C14.6939 24.3037 14.041 24.0814 13.5089 23.6714C13.3589 23.5582 13.2142 23.4464 13.0679 23.3362C12.6284 23.0024 12.1934 22.6612 11.7524 22.3252Z" fill="#E0E0E0"/>
<path d="M11.7524 22.3252C11.9384 22.1849 12.1237 22.0402 12.3097 21.8999C12.5647 22.0949 12.8159 22.2899 13.0717 22.4849C13.2217 22.5944 13.3657 22.7099 13.5127 22.8209C14.0448 23.2309 14.6976 23.4532 15.3693 23.4532C16.041 23.4532 16.6938 23.2309 17.2259 22.8209C17.3759 22.7077 17.5199 22.5959 17.6662 22.4849C17.9234 22.2922 18.1732 22.0949 18.4282 21.8999L18.5617 22.0012C18.5669 22.0694 18.5707 22.1399 18.5722 22.2134C18.5722 22.3034 18.5722 22.3904 18.5722 22.4722C18.5835 22.5247 18.585 22.5788 18.5767 22.6319C18.5062 22.9027 18.1432 23.0159 17.6662 23.3362C17.4412 23.4862 17.3542 23.5732 17.2259 23.6714C16.6938 24.0814 16.041 24.3037 15.3693 24.3037C14.6976 24.3037 14.0448 24.0814 13.5127 23.6714C13.3627 23.5582 13.2179 23.4464 13.0717 23.3362C12.6284 23.0024 12.1934 22.6612 11.7524 22.3252Z" fill="#E0E0E0"/>
<path d="M18.5737 22.4759C18.5863 22.5285 18.5878 22.5832 18.5782 22.6364C18.5264 22.9177 18.1559 23.0114 17.6662 23.3362C17.5133 23.4397 17.3664 23.5516 17.2259 23.6714C16.6938 24.0814 16.041 24.3037 15.3693 24.3037C14.6976 24.3037 14.0448 24.0814 13.5127 23.6714C13.3627 23.5582 13.2187 23.4464 13.0717 23.3362C12.6307 23.0002 12.1934 22.6612 11.7524 22.3252C11.9384 22.1849 12.1237 22.0402 12.3097 21.8999C12.5647 22.0949 12.8159 22.2899 13.0717 22.4849C13.2217 22.5944 13.3657 22.7099 13.5127 22.8209C14.0448 23.2309 14.6976 23.4532 15.3693 23.4532C16.041 23.4532 16.6938 23.2309 17.2259 22.8209C17.3759 22.7077 17.5192 22.5959 17.6662 22.4849C17.9219 22.2899 18.1732 22.0949 18.4282 21.8999L18.5617 22.0012C18.5677 22.0694 18.5714 22.1407 18.5737 22.2149C18.5767 22.3064 18.5759 22.3934 18.5737 22.4759Z" fill="#E0E0E0"/>
<path d="M33.75 14.55V27.5813C33.7498 27.8249 33.6529 28.0585 33.4807 28.2307C33.3084 28.403 33.0749 28.4998 32.8313 28.5C27.4388 28.4933 21.9188 28.5068 16.527 28.5H15.75L16.9658 27.7643C17.1758 21.2063 17.2658 16.317 17.25 14.55C17.2519 12.9137 16.6785 11.3288 15.63 10.0725C15.48 9.89253 15.33 9.72753 15.165 9.56253C15.1565 9.55326 15.1463 9.54564 15.135 9.54003C14.7216 9.13592 14.2607 8.78335 13.7625 8.49003C12.7745 7.90168 11.6563 7.56674 10.5075 7.51503L10.5 7.50753L15.75 7.50003H26.6325C27.9097 7.4964 29.164 7.83849 30.2625 8.49003C30.772 8.78898 31.243 9.14916 31.665 9.56253C31.83 9.72753 31.98 9.89253 32.13 10.0725C33.1779 11.3291 33.7513 12.9138 33.75 14.55Z" fill="url(#paint4_linear_174_4726)"/>
<path d="M21.3788 15.7365C21.3735 15.9769 21.2879 16.2087 21.1357 16.3948C20.9835 16.581 20.7734 16.711 20.5388 16.764C20.4454 16.7855 20.3496 16.7956 20.2538 16.794C19.9647 16.8017 19.6843 16.6949 19.4736 16.4968C19.2629 16.2987 19.139 16.0255 19.1288 15.7365V8.01896L20.7113 7.88696C20.9338 10.504 21.1563 13.1205 21.3788 15.7365Z" fill="url(#paint5_radial_174_4726)"/>
<path d="M25.5 2.05496V5.06997C25.5 5.26689 25.4218 5.45575 25.2825 5.59499C25.1433 5.73424 24.9544 5.81246 24.7575 5.81246H21V15.375C20.9991 15.6237 20.9158 15.8651 20.7632 16.0614C20.6105 16.2578 20.3971 16.398 20.1562 16.4602C20.0651 16.4877 19.9702 16.5011 19.875 16.5C19.5766 16.5 19.2905 16.3814 19.0795 16.1705C18.8685 15.9595 18.75 15.6733 18.75 15.375V1.76396C18.75 1.64462 18.7974 1.53016 18.8818 1.44577C18.9662 1.36138 19.0807 1.31396 19.2 1.31396H24.7575C24.9542 1.31396 25.1428 1.39199 25.282 1.53091C25.4212 1.66983 25.4996 1.8583 25.5 2.05496Z" fill="url(#paint6_linear_174_4726)"/>
<path d="M25.5 2.055V5.07C25.5 5.26692 25.4218 5.45578 25.2825 5.59503C25.1433 5.73427 24.9544 5.8125 24.7575 5.8125H21V15.375C20.9991 15.6237 20.9158 15.8651 20.7632 16.0615C20.6105 16.2578 20.3971 16.3981 20.1562 16.4603C19.9154 16.3981 19.702 16.2578 19.5493 16.0615C19.3967 15.8651 19.3134 15.6237 19.3125 15.375V1.3125H24.7575C24.855 1.3124 24.9516 1.33154 25.0418 1.36882C25.1319 1.4061 25.2138 1.46079 25.2827 1.52975C25.3517 1.59872 25.4064 1.68061 25.4437 1.77074C25.481 1.86087 25.5001 1.95747 25.5 2.055Z" fill="url(#paint7_linear_174_4726)"/>
<path d="M20.1353 16.0522C20.4861 16.0522 20.7705 15.7678 20.7705 15.417C20.7705 15.0661 20.4861 14.7817 20.1353 14.7817C19.7844 14.7817 19.5 15.0661 19.5 15.417C19.5 15.7678 19.7844 16.0522 20.1353 16.0522Z" fill="url(#paint8_radial_174_4726)"/>
<path d="M10.1287 8.25001C11.8153 8.25031 13.434 8.91443 14.6348 10.0988C14.7847 10.2488 14.919 10.3928 15.0555 10.5555C15.9933 11.6748 16.5049 13.0898 16.5 14.55V27.315C16.4998 27.4297 16.4541 27.5397 16.373 27.6208C16.2919 27.7019 16.182 27.7476 16.0673 27.7478H4.0305C3.95655 27.7476 3.88566 27.7183 3.83316 27.6662C3.78067 27.6141 3.75079 27.5434 3.75 27.4695V14.55C3.75431 13.4546 4.04386 12.3791 4.59016 11.4296C5.13645 10.4801 5.92064 9.6893 6.8655 9.13501C7.85486 8.55427 8.98154 8.24871 10.1287 8.25001ZM10.1287 7.50001C8.84713 7.49823 7.58855 7.84065 6.4845 8.49151C5.4255 9.10947 4.54668 9.99383 3.93538 11.0567C3.32409 12.1196 3.00161 13.3239 3 14.55V27.4695C3 27.7428 3.10857 28.0049 3.30183 28.1982C3.49508 28.3914 3.75719 28.5 4.0305 28.5H16.0673C16.3809 28.5 16.6818 28.3754 16.9036 28.1536C17.1254 27.9318 17.25 27.6309 17.25 27.3173V14.55C17.2524 12.9146 16.6801 11.3303 15.633 10.074C15.483 9.89401 15.3292 9.72826 15.162 9.56326C13.8207 8.24058 12.0125 7.49935 10.1287 7.50001Z" fill="#51BAE1"/>
<defs>
<linearGradient id="paint0_linear_174_4726" x1="15.75" y1="30.75" x2="20.25" y2="30.75" gradientUnits="userSpaceOnUse">
<stop stop-color="#A8A8A8"/>
<stop offset="0.009" stop-color="#9C9C9C"/>
<stop offset="0.035" stop-color="#808080"/>
<stop offset="0.06" stop-color="#6C6C6C"/>
<stop offset="0.086" stop-color="#606060"/>
<stop offset="0.112" stop-color="#5C5C5C"/>
<stop offset="0.342" stop-color="white"/>
<stop offset="0.496" stop-color="#989898"/>
<stop offset="0.613" stop-color="#505050"/>
<stop offset="0.667" stop-color="#343434"/>
<stop offset="0.813" stop-color="#7C7C7C"/>
<stop offset="0.821" stop-color="#767676"/>
<stop offset="0.896" stop-color="#464646"/>
<stop offset="0.933" stop-color="#343434"/>
</linearGradient>
<linearGradient id="paint1_linear_174_4726" x1="27.6368" y1="26.9483" x2="8.9445" y2="18.5423" gradientUnits="userSpaceOnUse">
<stop offset="0.034" stop-color="#1E1A1B"/>
<stop offset="0.156" stop-color="#1D1C22"/>
<stop offset="0.33" stop-color="#192335"/>
<stop offset="0.536" stop-color="#132E54"/>
<stop offset="0.766" stop-color="#0A3D7F"/>
<stop offset="1" stop-color="#004FB2"/>
</linearGradient>
<linearGradient id="paint2_linear_174_4726" x1="12.1178" y1="15.3119" x2="12.2708" y2="22.3814" gradientUnits="userSpaceOnUse">
<stop stop-color="#E2E2E2"/>
<stop offset="0.57" stop-color="white"/>
<stop offset="1" stop-color="#E0E0E0"/>
</linearGradient>
<linearGradient id="paint3_linear_174_4726" x1="12.1193" y1="23.7209" x2="12.2205" y2="27.8534" gradientUnits="userSpaceOnUse">
<stop stop-color="#E0E0E0"/>
<stop offset="0.48" stop-color="#EBEBEB"/>
<stop offset="0.859" stop-color="#CFCFCF"/>
</linearGradient>
<linearGradient id="paint4_linear_174_4726" x1="22.2645" y1="7.33878" x2="21.9675" y2="29.019" gradientUnits="userSpaceOnUse">
<stop offset="0.193" stop-color="#349EFF"/>
<stop offset="0.329" stop-color="#3199FA"/>
<stop offset="0.502" stop-color="#2989EA"/>
<stop offset="0.695" stop-color="#1C6FD0"/>
<stop offset="0.9" stop-color="#0A4BAD"/>
<stop offset="1" stop-color="#003799"/>
</linearGradient>
<radialGradient id="paint5_radial_174_4726" cx="0" cy="0" r="1" gradientUnits="userSpaceOnUse" gradientTransform="translate(25.2608 6.72446) scale(14.8148 14.8148)">
<stop stop-color="#00A1FF" stop-opacity="0"/>
<stop offset="0.048" stop-color="#009BFF" stop-opacity="0.021"/>
<stop offset="0.399" stop-color="#0075DC" stop-opacity="0.435"/>
<stop offset="0.749" stop-color="#0054BD" stop-opacity="0.784"/>
<stop offset="1" stop-color="#0040A9"/>
</radialGradient>
<linearGradient id="paint6_linear_174_4726" x1="22.0665" y1="-1.79404" x2="22.1655" y2="16.0575" gradientUnits="userSpaceOnUse">
<stop stop-color="#FF0000"/>
<stop offset="0.139" stop-color="#F40000"/>
<stop offset="0.381" stop-color="#D80000"/>
<stop offset="0.695" stop-color="#A90000"/>
<stop offset="1" stop-color="#760000"/>
</linearGradient>
<linearGradient id="paint7_linear_174_4726" x1="22.4063" y1="-0.9315" x2="22.4063" y2="19.9125" gradientUnits="userSpaceOnUse">
<stop stop-color="#FF656C"/>
<stop offset="0.077" stop-color="#FF5C63"/>
<stop offset="0.205" stop-color="#FF4449"/>
<stop offset="0.367" stop-color="#FF1E20"/>
<stop offset="0.478" stop-color="#FF0000"/>
<stop offset="0.55" stop-color="#F40000"/>
<stop offset="0.677" stop-color="#D80000"/>
<stop offset="0.841" stop-color="#A90000"/>
<stop offset="1" stop-color="#760000"/>
</linearGradient>
<radialGradient id="paint8_radial_174_4726" cx="0" cy="0" r="1" gradientUnits="userSpaceOnUse" gradientTransform="translate(20.2478 15.303) scale(0.83475)">
<stop stop-color="white"/>
<stop offset="0.116" stop-color="#DFDFDF"/>
<stop offset="0.393" stop-color="#989898"/>
<stop offset="0.522" stop-color="#7C7C7C"/>
<stop offset="0.551" stop-color="#767676"/>
<stop offset="0.806" stop-color="#464646"/>
<stop offset="0.933" stop-color="#343434"/>
</radialGradient>
</defs>
</svg>
