<svg width="37" height="36" viewBox="0 0 37 36" fill="none" xmlns="http://www.w3.org/2000/svg">
<path d="M5.56306 33.7145L5.52706 33.7495L5.48926 33.7145H2.25826C1.78452 33.7141 1.33035 33.531 0.995537 33.2055C0.660724 32.88 0.472656 32.4388 0.472656 31.9787V3.98533C0.47595 3.52625 0.665077 3.08686 0.999179 2.76207C1.33328 2.43728 1.78554 2.25317 2.25826 2.24951H34.6871C35.6735 2.24951 36.4727 3.0274 36.4727 3.98533V31.9787C36.4694 32.4378 36.2802 32.8772 35.9461 33.202C35.612 33.5268 35.1598 33.7109 34.6871 33.7145H5.56306V33.7145ZM32.8727 23.2262V5.74563H4.07266V30.2184L22.0727 12.7379L32.8727 23.2262ZM32.8727 28.1697L22.0727 17.6814L9.16306 30.2184H32.8727V28.1697ZM11.2727 16.234C10.3179 16.234 9.4022 15.8656 8.72707 15.21C8.05194 14.5543 7.67266 13.6651 7.67266 12.7379C7.67266 11.8106 8.05194 10.9214 8.72707 10.2657C9.4022 9.61008 10.3179 9.24174 11.2727 9.24174C12.2274 9.24174 13.1431 9.61008 13.8182 10.2657C14.4934 10.9214 14.8727 11.8106 14.8727 12.7379C14.8727 13.6651 14.4934 14.5543 13.8182 15.21C13.1431 15.8656 12.2274 16.234 11.2727 16.234Z" fill="white"/>
</svg>
