<svg width="36" height="36" viewBox="0 0 36 36" fill="none" xmlns="http://www.w3.org/2000/svg">
<path d="M18 0C14.4399 0 10.9598 1.05568 7.99974 3.03355C5.03966 5.01141 2.73255 7.82263 1.37018 11.1117C0.00779915 14.4008 -0.348661 18.02 0.345873 21.5116C1.04041 25.0033 2.75474 28.2106 5.27209 30.7279C7.78943 33.2453 10.9967 34.9596 14.4884 35.6541C17.98 36.3487 21.5992 35.9922 24.8883 34.6298C28.1774 33.2674 30.9886 30.9603 32.9665 28.0003C34.9443 25.0402 36 21.5601 36 18C35.9948 13.2277 34.0968 8.65231 30.7222 5.27778C27.3477 1.90324 22.7723 0.00516162 18 0ZM33 18C33.0018 20.9396 32.1344 23.814 30.507 26.262L28.719 24.4725C28.5788 24.3319 28.5 24.1415 28.5 23.943V22.5C28.5 21.3065 28.0259 20.1619 27.182 19.318C26.3381 18.4741 25.1935 18 24 18H19.5C19.1022 18 18.7207 17.842 18.4393 17.5607C18.158 17.2794 18 16.8978 18 16.5V15.75C18 15.5511 18.079 15.3603 18.2197 15.2197C18.3603 15.079 18.5511 15 18.75 15C19.7446 15 20.6984 14.6049 21.4017 13.9016C22.1049 13.1984 22.5 12.2446 22.5 11.25V9.75C22.5 9.55109 22.579 9.36032 22.7197 9.21967C22.8603 9.07902 23.0511 9 23.25 9H25.3185C26.3121 8.99717 27.2645 8.60263 27.969 7.902L28.5345 7.3365C29.9493 8.72861 31.0728 10.3885 31.8394 12.2193C32.6061 14.05 33.0006 16.0152 33 18ZM3.07351 19.4445L7.81051 24.1815C8.22736 24.601 8.72338 24.9336 9.26978 25.16C9.81618 25.3863 10.4021 25.5019 10.9935 25.5H15C15.3978 25.5 15.7794 25.658 16.0607 25.9393C16.342 26.2206 16.5 26.6022 16.5 27V32.9235C13.0503 32.5714 9.8286 31.0368 7.3814 28.58C4.9342 26.1232 3.41218 22.8956 3.07351 19.4445ZM19.5 32.9235V27C19.5 25.8065 19.0259 24.6619 18.182 23.818C17.3381 22.9741 16.1935 22.5 15 22.5H10.9935C10.7963 22.5002 10.601 22.4614 10.4187 22.386C10.2365 22.3106 10.0709 22.2 9.93151 22.0605L3.24451 15.3735C3.67377 12.9333 4.70211 10.6378 6.23727 8.69307C7.77243 6.7483 9.76637 5.21506 12.0402 4.23092C14.314 3.24678 16.7966 2.84252 19.2652 3.05442C21.7338 3.26632 24.1112 4.08775 26.184 5.445L25.848 5.781C25.7068 5.92024 25.5168 5.99883 25.3185 6H23.25C22.2554 6 21.3016 6.39509 20.5984 7.09835C19.8951 7.80161 19.5 8.75544 19.5 9.75V11.25C19.5 11.4489 19.421 11.6397 19.2803 11.7803C19.1397 11.921 18.9489 12 18.75 12C17.7554 12 16.8016 12.3951 16.0984 13.0983C15.3951 13.8016 15 14.7554 15 15.75V16.5C15 17.6935 15.4741 18.8381 16.318 19.682C17.1619 20.5259 18.3065 21 19.5 21H24C24.3978 21 24.7794 21.158 25.0607 21.4393C25.342 21.7206 25.5 22.1022 25.5 22.5V23.943C25.5028 24.9366 25.8974 25.889 26.598 26.5935L28.6035 28.599C26.1607 31.0503 22.9434 32.5786 19.5 32.9235Z" fill="white"/>
</svg>
