<svg width="36" height="36" viewBox="0 0 36 36" fill="none" xmlns="http://www.w3.org/2000/svg">
<path d="M17.9995 28.7369L7.25385 34.6664C7.1047 34.7487 6.92751 34.6188 6.96116 34.4518L9.35989 22.5491L0.323707 14.3123C0.196965 14.1968 0.264879 13.9858 0.435214 13.9659L12.6593 12.5367L17.8184 1.5121C17.8903 1.35846 18.1088 1.35846 18.1807 1.5121L23.3397 12.5367L35.5638 13.9659C35.7341 13.9858 35.8021 14.1968 35.6753 14.3123L26.6391 22.5491L29.0379 34.4518C29.0715 34.6188 28.8943 34.7487 28.7452 34.6664L17.9995 28.7369ZM17.9995 25.1735L24.6977 28.8691L23.2009 21.4484L28.8361 16.31L21.2137 15.4192L17.9995 8.54882L14.7853 15.4207L7.16292 16.31L12.7981 21.4484L11.3014 28.8691L17.9995 25.1735Z" fill="white"/>
</svg>
