<svg width="36" height="36" viewBox="0 0 36 36" fill="none" xmlns="http://www.w3.org/2000/svg">
<path fill-rule="evenodd" clip-rule="evenodd" d="M2.2895 23.0504C3.75568 21.5473 5.74425 20.7029 7.81774 20.7029H19.454C21.5275 20.7029 23.516 21.5473 24.9822 23.0504C26.4484 24.5534 27.2721 26.592 27.2721 28.7177V31.6999C27.2721 32.8323 26.5496 33.7502 25.445 33.7502C24.3405 33.7502 23.6179 32.8323 23.6179 31.6999V28.1252C23.6179 27.0871 23.2157 26.0915 22.4996 25.3575C21.7836 24.6234 20.8124 24.211 19.7998 24.211H7.19947C6.18684 24.211 5.21568 24.6234 4.49963 25.3575C3.78359 26.0915 3.38133 27.0871 3.38133 28.1252V31.6999C3.38133 32.8323 2.79504 33.7502 1.69048 33.7502C0.585921 33.7502 -0.000366211 32.8323 -0.000366211 31.6999V28.7177C-0.000366211 26.592 0.823325 24.5534 2.2895 23.0504Z" fill="white"/>
<path fill-rule="evenodd" clip-rule="evenodd" d="M13.6361 5.625C11.2496 5.625 8.99963 6.75 8.99963 10.2648C8.99963 13.5 11.2496 14.625 13.6361 14.625C15.7448 14.625 17.9996 13.5 17.9996 10.2648C17.9996 6.75 15.7448 5.625 13.6361 5.625ZM5.81799 10.2648C5.81799 5.83834 9.31828 2.25 13.6361 2.25C17.9539 2.25 21.4542 5.83834 21.4542 10.2648C21.4542 14.6912 17.9539 18.2796 13.6361 18.2796C9.31828 18.2796 5.81799 14.6912 5.81799 10.2648Z" fill="white"/>
<path fill-rule="evenodd" clip-rule="evenodd" d="M27.7008 22.7537C27.7008 21.3751 29.0678 20.4854 30.1373 20.7685C31.8145 21.2124 33.3004 22.2148 34.3617 23.6183C35.423 25.0219 35.9996 26.747 36.0009 28.5228V31.5065C36.0009 32.6389 35.4169 33.5568 34.3123 33.5568C33.2078 33.5568 32.6238 32.6389 32.6238 31.5065L32.6246 28.5252C32.6238 27.6582 32.3422 26.8159 31.8241 26.1306C31.3058 25.4452 30.5801 24.9557 29.761 24.7388C28.6915 24.4558 27.7019 23.6251 27.7008 22.7537Z" fill="white"/>
<path fill-rule="evenodd" clip-rule="evenodd" d="M21.8815 3.98596C22.1555 2.889 23.245 2.22742 24.315 2.50829C25.9967 2.94971 27.4873 3.95236 28.5517 5.35817C29.6162 6.76398 30.1939 8.49299 30.1939 10.2726C30.1939 12.0522 29.6162 13.7813 28.5517 15.1871C27.4873 16.5929 25.9967 17.5955 24.315 18.0369C23.245 18.3178 22.1555 17.6562 21.8815 16.5593C21.6075 15.4623 22.7349 14.3454 23.8049 14.0645C24.6262 13.8489 25.3542 13.3593 25.874 12.6727C26.3939 11.9861 26.676 11.1417 26.676 10.2726C26.676 9.4035 26.3939 8.5591 25.874 7.87254C25.3542 7.18598 24.6262 6.69631 23.8049 6.48074C22.7349 6.19987 21.6075 5.08292 21.8815 3.98596Z" fill="white"/>
</svg>
